<?xml version="1.0" standalone="no"?>
<!DOCTYPE svg PUBLIC "-//W3C//DTD SVG 1.1//EN" "http://www.w3.org/Graphics/SVG/1.1/DTD/svg11.dtd" >
<svg xmlns="http://www.w3.org/2000/svg">
<metadata>
This is a custom SVG webfont generated by Fontspring.
</metadata>
<defs>
<font id="webfontzCtWiP22" horiz-adv-x="1024" >
<font-face units-per-em="2048" ascent="1542" descent="-506" />
<missing-glyph horiz-adv-x="512" />
<glyph unicode=" "  horiz-adv-x="512" />
<glyph unicode="&#x09;" horiz-adv-x="512" />
<glyph unicode="&#xa0;" horiz-adv-x="512" />
<glyph unicode="!" horiz-adv-x="530" d="M190 61.5q0 30.5 23 52t53.5 21.5t52 -21.5t21.5 -52t-22.5 -53t-51.5 -22.5q-31 0 -53.5 22.5t-22.5 53zM221 246v661h88v-661h-88z" />
<glyph unicode="&#x22;" horiz-adv-x="737" d="M215 1366h94l-16 -469h-64zM428 1366h92l-14 -469h-64z" />
<glyph unicode="#" horiz-adv-x="1228" d="M92 451v81h252l41 328h-242v82h252l51 430l89 -12l-52 -418h328l53 430l88 -12l-51 -418h236v-82h-244l-41 -328h233v-81h-243l-58 -457l-86 12l56 445h-332l-57 -457l-86 12l55 445h-242zM432 532h330l39 328h-328z" />
<glyph unicode="$" horiz-adv-x="1120" d="M150 274l75 35q102 -244 324 -243v626q-119 57 -160 84q-86 55 -123 116.5t-37 149.5q0 137 89.5 230.5t230.5 103.5v191h80v-193q88 -12 162.5 -63t113.5 -127l-65 -54q-86 141 -211 160v-540q168 -82 215 -119q129 -92 129 -250q0 -143 -97.5 -253t-246.5 -138v-209 h-80v203q-290 5 -399 290zM319 1038q0 -82 46.5 -132t183.5 -120v508q-98 -8 -164 -81t-66 -175zM629 74q111 27 182.5 112.5t71.5 192.5q0 88 -55.5 147.5t-198.5 126.5v-579z" />
<glyph unicode="%" horiz-adv-x="1239" d="M68 1114q0 111 79.5 187.5t194.5 76.5q119 0 197.5 -76.5t78.5 -191.5t-79.5 -191.5t-198.5 -76.5q-115 0 -193.5 78.5t-78.5 193.5zM150 1114q0 -82 56 -139t138 -57q78 0 135.5 57t57.5 137t-57.5 136.5t-137.5 56.5q-78 0 -135 -56.5t-57 -134.5zM182 2l809 1395 l60 -31l-811 -1397zM618 260q0 111 80 187.5t195 76.5q119 0 197.5 -76.5t78.5 -191.5t-79.5 -191.5t-198.5 -76.5q-115 0 -194 78.5t-79 193.5zM698 258q0 -82 56.5 -139.5t138.5 -57.5q80 0 137 57.5t57 137.5t-57 136.5t-137 56.5t-137.5 -56.5t-57.5 -134.5z" />
<glyph unicode="&#x26;" horiz-adv-x="927" d="M102 209q0 94 60.5 165.5t224.5 170.5l-37 57q-45 72 -45 135q0 74 54.5 126t129.5 52q74 0 123.5 -50t49.5 -124q0 -61 -34 -108t-124 -111l201 -268q53 57 98 115l74 -35q-78 -100 -125 -148l139 -186h-105l-98 131q-193 -152 -332 -151q-104 0 -179 67.5t-75 161.5z M184 217q0 -70 49.5 -116t122.5 -46q115 0 285 142l-209 286l-82 -51q-168 -104 -166 -215zM387 733q0 -29 11.5 -52.5t58.5 -94.5q76 55 99.5 87t23.5 72.5t-26 67.5t-65 27q-43 0 -72.5 -31t-29.5 -76z" />
<glyph unicode="'" horiz-adv-x="501" d="M199 1366h94l-17 -469h-63z" />
<glyph unicode="(" horiz-adv-x="550" d="M178 584q0 252 41 519t103 419l67 -47q-127 -446 -127 -891q0 -446 127 -893l-67 -47q-61 154 -102.5 420t-41.5 520z" />
<glyph unicode=")" horiz-adv-x="550" d="M164 -309q127 442 127 892.5t-127 891.5l67 47q61 -152 102.5 -419t41.5 -519q0 -254 -41 -520.5t-103 -419.5z" />
<glyph unicode="*" horiz-adv-x="1120" d="M238 1227l26 84l258 -90l-6 272h88l-6 -272l256 90l29 -84l-262 -78l165 -217l-71 -51l-156 225l-153 -225l-72 51l166 217z" />
<glyph unicode="+" horiz-adv-x="1120" d="M63 655v82h455v449h82v-449h455v-82h-455v-448h-82v448h-455z" />
<glyph unicode="," horiz-adv-x="415" d="M78 -281l123 414l82 -24l-152 -410z" />
<glyph unicode="-" horiz-adv-x="344" d="M0 383v82h344v-82h-344z" />
<glyph unicode="." horiz-adv-x="415" d="M133 61q0 29 22.5 51.5t53.5 22.5t52.5 -21.5t21.5 -52t-22.5 -53t-51.5 -22.5q-31 0 -53.5 22t-22.5 53z" />
<glyph unicode="/" horiz-adv-x="1114" d="M14 -324l1039 1846l63 -33l-1036 -1845z" />
<glyph unicode="0" horiz-adv-x="1187" d="M98 522q0 219 147.5 378t352.5 159t348.5 -155.5t143.5 -379.5q0 -225 -145.5 -384.5t-350.5 -159.5t-350.5 158.5t-145.5 383.5zM180 520q0 -199 120 -332t296 -133q168 0 290 137.5t122 325.5q0 193 -121 329t-293 136t-293 -135t-121 -328z" />
<glyph unicode="1" horiz-adv-x="778" d="M178 963l41 75h262v-1038h-82v963h-221z" />
<glyph unicode="2" horiz-adv-x="1132" d="M139 0l490 385q143 113 192 179.5t49 146.5q0 113 -89 191.5t-214 78.5q-133 0 -212 -84t-85 -233h-82q6 125 52 206q49 88 137 137.5t194 49.5q158 0 269.5 -103.5t111.5 -248.5q0 -92 -45 -163t-162 -163l-383 -303h611v-76h-834z" />
<glyph unicode="3" horiz-adv-x="1146" d="M156 8h86q10 -98 45 -151q35 -57 105.5 -94t142.5 -37q129 0 223 96t94 227q0 84 -41 152.5t-113 103.5q-66 31 -161 37v80q106 8 172 53q123 80 122 230q0 119 -77.5 198.5t-192.5 79.5q-70 0 -130 -29.5t-93 -81t-47 -157.5h-84q14 115 51 184q39 74 119 117t176 43 q152 0 256 -103.5t104 -253.5q0 -213 -204 -315q225 -94 225 -338q0 -168 -117 -283.5t-285 -115.5q-102 0 -193 49t-138 131q-43 76 -45 178z" />
<glyph unicode="4" horiz-adv-x="1105" d="M55 0l754 1083v-1007h192v-76h-192v-328h-82v328h-672zM199 76h528v755z" />
<glyph unicode="5" horiz-adv-x="1161" d="M82 -121l80 33q121 -184 330 -184q170 0 287.5 116.5t117.5 284.5t-116.5 281.5t-288.5 113.5q-102 0 -207 -59l178 573h518v-75h-461l-114 -375q53 12 104 12q199 0 334 -134t135 -335q0 -205 -141.5 -342t-348.5 -137q-266 0 -407 227z" />
<glyph unicode="6" horiz-adv-x="1187" d="M109 461q0 154 88 278l452 643l68 -51l-307 -432q102 37 188 37q199 0 339 -140.5t140 -336.5q0 -199 -141 -339t-342 -140q-205 0 -345 140t-140 341zM190 457q0 -166 119 -284t287 -118t281 119q119 123 118 279q0 170 -116.5 288.5t-284.5 118.5t-286 -117.5 t-118 -285.5z" />
<glyph unicode="7" horiz-adv-x="1075" d="M106 -291l828 1254h-774v75h915l-907 -1376z" />
<glyph unicode="8" horiz-adv-x="1187" d="M199 362q0 233 223 349q-188 109 -189 315q0 152 105.5 256t259.5 104q156 0 261.5 -103t105.5 -255q0 -96 -53.5 -181t-145.5 -136q223 -106 223 -340q0 -164 -114.5 -277.5t-282.5 -113.5q-166 0 -279.5 110t-113.5 272zM281 371q0 -131 91 -223.5t220 -92.5 q131 0 223 91.5t92 220.5t-92 219t-223 90q-127 0 -219 -90t-92 -215zM315 1030q0 -119 82 -202t199 -83q119 0 202 82t83 199q0 119 -83 202t-202 83q-113 0 -197 -84t-84 -197z" />
<glyph unicode="9" horiz-adv-x="1187" d="M113 580q0 199 142 339t343 140q203 0 343 -140.5t140 -340.5q0 -154 -88 -281l-452 -641l-68 51l305 430q-104 -35 -188 -35q-197 0 -337 140.5t-140 337.5zM195 586q0 -170 116.5 -289t284.5 -119t285.5 118t117.5 286q0 166 -118.5 283.5t-286.5 117.5t-281 -119 q-53 -53 -85.5 -129.5t-32.5 -148.5z" />
<glyph unicode=":" horiz-adv-x="415" d="M133 61q0 29 22.5 51.5t53.5 22.5t52.5 -21.5t21.5 -52t-22.5 -53t-51.5 -22.5q-31 0 -53.5 22t-22.5 53zM133 780q0 29 22.5 51.5t53.5 22.5t52.5 -21.5t21.5 -52t-22.5 -53t-51.5 -22.5q-31 0 -53.5 22t-22.5 53z" />
<glyph unicode=";" horiz-adv-x="415" d="M78 -281l123 414l82 -24l-152 -410zM141 780q0 29 22.5 51.5t53.5 22.5q29 0 51.5 -21.5t22.5 -52t-22.5 -53t-51.5 -22.5q-33 0 -54.5 22t-21.5 53z" />
<glyph unicode="&#x3c;" d="M68 645v82l886 395v-90l-790 -346l790 -348v-90z" />
<glyph unicode="=" horiz-adv-x="1120" d="M63 547v82h992v-82h-992zM63 764v82h992v-82h-992z" />
<glyph unicode="&#x3e;" d="M70 248v90l790 348l-790 346v90l886 -395v-82z" />
<glyph unicode="?" horiz-adv-x="727" d="M150 715q0 86 61 143t151 57q94 0 155 -61t61 -158q0 -123 -84 -172q-33 -18 -134 -45q-57 -16 -78.5 -37.5t-21.5 -66.5q0 -47 27.5 -74t74.5 -27q51 0 76 29t31 90h82q-10 -197 -189 -196q-82 0 -135 53t-53 131q0 102 92 147q33 16 127 41q100 25 101 136q0 59 -37 95 t-96.5 36t-93.5 -36t-34 -98q0 -20 7 -57h-82q-8 41 -8 70zM291 61q0 29 22.5 51.5t53 22.5t52 -21.5t21.5 -52t-22.5 -53t-50.5 -22.5q-31 0 -53.5 22t-22.5 53z" />
<glyph unicode="@" horiz-adv-x="1572" d="M106 684q0 295 206 497.5t507 202.5q276 0 462.5 -173t186.5 -429q0 -186 -97 -322t-228 -136q-55 0 -95 35.5t-40 84.5v21q-68 -82 -127.5 -114t-141.5 -32q-139 0 -230 95.5t-91 242.5q0 168 103.5 281t258.5 113q90 0 153.5 -37t123.5 -125l18 143h82l-72 -565 q0 -31 21.5 -51.5t54.5 -20.5q94 0 164 114t70 263q0 233 -164 386t-414 153q-266 0 -449.5 -182.5t-183.5 -446.5q0 -268 181.5 -448.5t478.5 -180.5q225 0 452 113l29 -70q-231 -115 -479 -114q-328 0 -534 200.5t-206 501.5zM502 662q0 -115 69.5 -191t176.5 -76 q119 0 205.5 97.5t86.5 228.5q0 111 -70.5 181.5t-178.5 70.5q-123 0 -206 -89t-83 -222z" />
<glyph unicode="A" horiz-adv-x="1196" d="M27 0l573 1407l569 -1407h-100l-180 449h-582l-182 -449h-98zM340 530h516l-256 648z" />
<glyph unicode="B" horiz-adv-x="1091" d="M184 0v1366h295q188 0 285 -104q92 -102 92 -254q0 -98 -36 -163t-124 -120q100 -27 160 -74q125 -98 125 -272q0 -176 -137 -289q-111 -90 -289 -90h-371zM272 82h230q121 0 181 16.5t114 65.5q94 84 94 215q0 82 -41 150.5t-109 97.5q-90 39 -256 39h-213v-584z M272 748h174q94 0 139.5 11t88.5 46q90 70 90 205q0 145 -90 217q-78 57 -228 57h-174v-536z" />
<glyph unicode="C" horiz-adv-x="1386" d="M109 680q0 287 209.5 495.5t498.5 208.5q250 0 459 -176v-123q-84 90 -160 134q-145 82 -301 81q-248 0 -431 -186t-183 -438q0 -276 213 -457q186 -158 401 -158q174 0 342 105q55 35 119 100v-119q-217 -170 -455 -170q-289 0 -500.5 209t-211.5 494z" />
<glyph unicode="D" horiz-adv-x="1263" d="M184 0v1366h271q309 0 499 -188q201 -201 201 -494q0 -297 -201 -494q-190 -190 -499 -190h-271zM272 82h181q260 0 426 158q184 172 184 444q0 270 -184 442q-166 158 -426 158h-181v-1202z" />
<glyph unicode="E" horiz-adv-x="948" d="M184 0v1366h654v-82h-566v-496h553v-81h-553v-625h566v-82h-654z" />
<glyph unicode="F" horiz-adv-x="831" d="M184 0v1366h551v-82h-463v-496h451v-81h-451v-707h-88z" />
<glyph unicode="G" horiz-adv-x="1579" d="M109 678q0 293 208.5 499.5t503.5 206.5q244 0 428 -147q66 -51 164 -172l-72 -55q-66 86 -131 145q-172 145 -393 145q-252 0 -435 -185t-183 -439q0 -250 182 -432.5t432 -182.5q150 0 290 74t210 189q55 90 61 249h-479v82h575q0 -131 -16 -209.5t-59 -152.5 q-82 -141 -242 -228.5t-338 -87.5q-291 0 -498.5 207t-207.5 494z" />
<glyph unicode="H" horiz-adv-x="1374" d="M184 0v1366h88v-580h830v580h88v-1366h-88v705h-830v-705h-88z" />
<glyph unicode="I" horiz-adv-x="456" d="M184 0v1366h88v-1366h-88z" />
<glyph unicode="J" horiz-adv-x="542" d="M-109 -137l66 49q59 -113 170 -113q143 0 143 205v1362h88v-1362q0 -129 -45 -197q-63 -92 -190 -92q-156 1 -232 148z" />
<glyph unicode="K" horiz-adv-x="1103" d="M184 0v1366h88v-635l641 635h121l-667 -659l710 -707h-131l-641 649l-33 -33v-616h-88z" />
<glyph unicode="L" horiz-adv-x="645" d="M184 0v1366h88v-1284h346v-82h-434z" />
<glyph unicode="M" horiz-adv-x="1837" d="M170 0l154 1413l589 -1263l596 1263l156 -1413h-90l-123 1098l-539 -1147l-534 1147l-119 -1098h-90z" />
<glyph unicode="N" horiz-adv-x="1603" d="M184 0v1380l1147 -1200v1186h88v-1401l-1147 1200v-1165h-88z" />
<glyph unicode="O" horiz-adv-x="1634" d="M109 692q0 279 210.5 485.5t495.5 206.5q291 0 500 -207.5t209 -494.5q0 -291 -210 -498t-503 -207q-289 0 -495.5 211t-206.5 504zM201 690q0 -281 198 -463q182 -166 412 -166q256 0 438.5 182.5t182.5 438.5q0 254 -182.5 436t-434.5 182q-250 0 -432 -181t-182 -429z " />
<glyph unicode="P" horiz-adv-x="911" d="M184 0v1366h262q201 0 299 -104q98 -102 99 -254q0 -168 -105.5 -263.5t-289.5 -95.5h-177v-649h-88zM272 731h179q137 0 219 76t82 201q0 127 -74 200q-76 76 -240 76h-166v-553z" />
<glyph unicode="Q" horiz-adv-x="1634" d="M109 680q0 289 208.5 496.5t499.5 207.5t499 -206.5t208 -495.5q0 -135 -46 -249t-153 -243l178 -190h-117l-122 139q-211 -162 -453 -162q-289 0 -495.5 207t-206.5 496zM201 678q0 -254 181 -435.5t435 -181.5q197 0 385 142l-340 356h123l277 -303q94 111 132 205 t38 213q0 260 -179.5 443t-433.5 183t-436 -183t-182 -439z" />
<glyph unicode="R" horiz-adv-x="956" d="M184 0v1366h193q190 0 289 -70q137 -96 137 -292q0 -219 -172 -314q-68 -37 -217 -45l446 -645h-108l-439 645h-41v-645h-88zM272 727h131q147 0 228.5 72.5t81.5 206.5q0 80 -33 143t-88 94q-74 41 -207 41h-113v-557z" />
<glyph unicode="S" horiz-adv-x="1048" d="M109 270l75 37q43 -90 76 -131q94 -115 252 -115q137 0 235.5 94.5t98.5 223.5q0 131 -133 211l-254 129q-156 78 -213.5 146.5t-57.5 178.5q0 147 99.5 243.5t251.5 96.5q219 0 331 -194l-65 -53q-59 90 -119.5 126.5t-148.5 36.5q-109 0 -182.5 -74.5t-73.5 -183.5 q0 -82 51 -137t190 -123q199 -94 273 -141q143 -94 143 -262q0 -166 -126 -284t-302 -118q-280 0 -401 293z" />
<glyph unicode="T" horiz-adv-x="849" d="M27 1284v82h794v-82h-356v-1284h-88v1284h-350z" />
<glyph unicode="U" horiz-adv-x="1296" d="M184 487v879h88v-854q0 -127 10.5 -187.5t39.5 -105.5q45 -70 136 -114t189 -44q100 0 191.5 44.5t136.5 113.5q29 45 39 105.5t10 187.5v854h88v-879q0 -135 -14.5 -200.5t-57.5 -122.5q-61 -86 -166.5 -136.5t-226.5 -50.5q-119 0 -224.5 50.5t-166.5 136.5 q-43 59 -57.5 124.5t-14.5 198.5z" />
<glyph unicode="V" horiz-adv-x="1040" d="M27 1366h98l399 -1153l394 1153h94l-488 -1421z" />
<glyph unicode="W" horiz-adv-x="2011" d="M27 1366h100l371 -1155l495 1229l463 -1229l426 1155h100l-526 -1417l-463 1239l-508 -1239z" />
<glyph unicode="X" horiz-adv-x="946" d="M47 0l373 698l-359 668h101l309 -575l307 575h103l-359 -668l377 -698h-100l-328 606l-324 -606h-100z" />
<glyph unicode="Y" horiz-adv-x="1052" d="M27 1366h102l389 -686l400 686h104l-461 -782v-584h-88v584z" />
<glyph unicode="Z" horiz-adv-x="1136" d="M76 0l833 1284h-753v82h907l-836 -1284h811v-82h-962z" />
<glyph unicode="[" horiz-adv-x="567" d="M178 -328v1821h307v-82h-219v-1659h219v-80h-307z" />
<glyph unicode="\" horiz-adv-x="1114" d="M-2 1489l63 33l1039 -1846l-66 -32z" />
<glyph unicode="]" horiz-adv-x="567" d="M82 -246h219v1659h-219v80h307v-1821h-307v82z" />
<glyph unicode="^" d="M74 780l379 586h118l379 -586h-102l-338 516l-336 -516h-100z" />
<glyph unicode="_" d="M0 -156h1024v-84h-1024v84z" />
<glyph unicode="`" d="M293 1264l90 51l186 -281l-61 -33z" />
<glyph unicode="a" horiz-adv-x="858" d="M27 0l403 954l399 -954h-90l-121 291h-380l-121 -291h-90zM272 369h312l-154 379z" />
<glyph unicode="b" horiz-adv-x="862" d="M184 0v907h217q135 0 205 -71q66 -70 66 -166q0 -137 -119 -185q88 -16 143.5 -80.5t55.5 -148.5q0 -113 -85 -184.5t-216 -71.5h-267zM266 78h150q80 0 119.5 10t74.5 39q59 49 60 131q0 106 -95 148q-61 25 -169 24h-140v-352zM266 508h113q104 0 151 35q57 43 58 121 q0 86 -50.5 125.5t-158.5 39.5h-113v-321z" />
<glyph unicode="c" horiz-adv-x="1011" d="M96 446q0 193 143.5 331t342.5 138q172 0 321 -122v-117q-143 164 -321 164q-162 0 -282 -118t-120 -278q0 -156 120 -272.5t282 -116.5q178 0 321 156v-115q-156 -117 -317 -116q-199 0 -344.5 138t-145.5 328z" />
<glyph unicode="d" horiz-adv-x="960" d="M184 0v907h201q213 0 342 -127q137 -131 137 -325.5t-137 -327.5q-129 -127 -342 -127h-201zM266 78h117q174 0 285.5 105.5t111.5 269.5q0 166 -111.5 271t-285.5 105h-117v-751z" />
<glyph unicode="e" horiz-adv-x="768" d="M184 0v907h475v-78h-393v-294h385v-78h-385v-379h393v-78h-475z" />
<glyph unicode="f" horiz-adv-x="688" d="M184 0v907h410v-78h-328v-294h318v-78h-318v-457h-82z" />
<glyph unicode="g" horiz-adv-x="1130" d="M96 444q0 195 143.5 333t344.5 138q125 0 221 -52t192 -171l-65 -51q-57 74 -94 107q-104 92 -256 92q-164 0 -283 -118t-119 -280q0 -158 118 -272.5t282 -114.5q96 0 187 47.5t136 118.5q37 53 39 144h-309v77h397q0 -166 -53 -254q-55 -92 -166 -150t-231 -58 q-199 0 -341.5 137t-142.5 327z" />
<glyph unicode="h" horiz-adv-x="1071" d="M184 0v907h82v-375h539v375h82v-907h-82v455h-539v-455h-82z" />
<glyph unicode="i" horiz-adv-x="450" d="M184 0v907h82v-907h-82z" />
<glyph unicode="j" horiz-adv-x="432" d="M-109 -74l62 47q47 -82 121 -82q94 0 94 123v893h82v-893q0 -199 -178 -198q-122 -1 -181 110z" />
<glyph unicode="k" horiz-adv-x="858" d="M184 0v907h82v-405l424 405h115l-459 -432l485 -475h-118l-430 422l-17 -16v-406h-82z" />
<glyph unicode="l" horiz-adv-x="544" d="M184 0v907h82v-829h250v-78h-332z" />
<glyph unicode="m" horiz-adv-x="1363" d="M170 0l113 971l395 -840l399 840l115 -971h-84l-82 684l-348 -731l-346 731l-80 -684h-82z" />
<glyph unicode="n" horiz-adv-x="1218" d="M184 0v936l768 -776v747h82v-948l-768 776v-735h-82z" />
<glyph unicode="o" horiz-adv-x="1159" d="M96 455q0 186 144.5 323t339.5 137q199 0 342 -138t143 -328q0 -193 -143.5 -331t-343.5 -138q-199 0 -340.5 140t-141.5 335zM180 455q0 -164 117 -282t281 -118q166 0 284.5 116t118.5 278q0 160 -119 275.5t-282 115.5q-162 0 -281 -114.5t-119 -270.5z" />
<glyph unicode="p" horiz-adv-x="731" d="M184 0v907h197q139 0 213 -71q70 -70 70 -172q0 -113 -76 -178.5t-207 -65.5h-115v-420h-82zM266 498h117q90 0 143.5 45t53.5 121q0 166 -205 165h-109v-331z" />
<glyph unicode="q" horiz-adv-x="1159" d="M96 446q0 193 142.5 331t343.5 138q199 0 341 -137t142 -327q0 -166 -139 -320l123 -131h-109l-72 80q-137 -100 -293 -100q-197 0 -338 138t-141 328zM180 446q0 -160 118 -275.5t280 -115.5q123 0 233 84l-229 242h112l174 -191q113 119 113 256q0 162 -118 278 t-281.5 116t-282.5 -116t-119 -278z" />
<glyph unicode="r" horiz-adv-x="780" d="M184 0v907h152q133 0 203 -47q98 -68 98 -198q0 -111 -76 -181q-59 -51 -180 -61l303 -420h-98l-299 418h-21v-418h-82zM266 496h86q203 0 203 168q0 166 -215 165h-74v-333z" />
<glyph unicode="s" horiz-adv-x="811" d="M109 188l71 33q29 -61 56 -94q59 -72 163 -72q88 0 152.5 58.5t64.5 138.5q0 53 -35.5 88t-144.5 84q-117 51 -176 88q-96 61 -96 170q0 100 71.5 166.5t180.5 66.5q162 0 246 -141l-62 -51q-45 66 -85 91.5t-101 25.5q-72 0 -119 -45t-47 -113q0 -49 32.5 -81t127.5 -75 q131 -59 188 -94q104 -66 104 -180q0 -113 -89 -192.5t-214 -79.5q-200 -1 -288 208z" />
<glyph unicode="t" horiz-adv-x="620" d="M27 829v78h565v-78h-242v-829h-82v829h-241z" />
<glyph unicode="u" horiz-adv-x="1021" d="M184 322v585h82v-569q0 -137 31 -186q29 -43 88 -70t127 -27q66 0 125 27t86 70q33 47 33 186v569h82v-585q0 -88 -10.5 -132.5t-41.5 -85.5q-92 -125 -274 -124q-184 0 -276 124q-31 41 -41.5 85.5t-10.5 132.5z" />
<glyph unicode="v" horiz-adv-x="753" d="M27 907h90l264 -727l258 727h88l-346 -968z" />
<glyph unicode="w" horiz-adv-x="1382" d="M27 907h90l239 -731l326 801l307 -801l273 731h92l-365 -964l-307 811l-336 -811z" />
<glyph unicode="x" horiz-adv-x="714" d="M47 0l262 463l-252 444h93l206 -366l205 366h92l-250 -444l263 -463h-93l-217 385l-217 -385h-92z" />
<glyph unicode="y" horiz-adv-x="770" d="M27 907h94l260 -436l264 436h96l-321 -522v-385h-82v387z" />
<glyph unicode="z" horiz-adv-x="860" d="M76 0l565 829h-504v78h649l-567 -829h541v-78h-684z" />
<glyph unicode="{" horiz-adv-x="491" d="M74 553v61q47 12 76 39q27 27 35 72t8 168v354q0 109 26 164q47 90 166 90h47v-74q-14 -2 -31 -2q-53 -2 -69 -12q-51 -33 -51 -162v-360q0 -156 -15.5 -209t-75.5 -98q51 -41 71 -86t20 -123v-461q0 -152 71 -170q14 -4 80 -4v-76h-47q-117 0 -166 90q-27 53 -26 164 v455q0 80 -26.5 120t-92.5 60z" />
<glyph unicode="|" d="M467 -342v1708h88v-1708h-88z" />
<glyph unicode="}" horiz-adv-x="491" d="M59 -260q63 0 88 6q63 23 64 168v362q0 154 15.5 207.5t74.5 100.5q-51 39 -70.5 84t-19.5 123v460q0 129 -51 162q-16 10 -70 12q-18 0 -31 2v74h47q119 0 166 -90q27 -55 27 -164v-454q0 -80 26.5 -120t92.5 -59v-61q-53 -16 -76 -41q-27 -27 -35 -72t-8 -168v-354 q0 -111 -27 -164q-49 -90 -166 -90h-47v76z" />
<glyph unicode="~" horiz-adv-x="1366" d="M193 1253q59 113 120.5 162t145.5 49q88 0 237 -78q145 -74 213 -73.5t119 47.5q53 53 70 86q10 25 20 24q16 0 53 -36q-115 -209 -264 -209q-53 0 -105 17.5t-167 76.5q-115 57 -186 57q-66 0 -113 -47q-53 -53 -72 -90q-10 -25 -18 -25q-18 0 -53 39z" />
<glyph unicode="&#xa1;" horiz-adv-x="530" d="M190 846q0 31 23 53.5t53 22.5q29 0 51.5 -22.5t22.5 -53.5t-22.5 -52.5t-53.5 -21.5t-52.5 21.5t-21.5 52.5zM221 0v662h88v-662h-88z" />
<glyph unicode="&#xa2;" horiz-adv-x="1120" d="M193 690q0 176 104 297t274 143v211h80v-208q150 -6 264 -107v-106q-117 123 -264 137v-721q74 4 148.5 44t126.5 103v-108q-55 -49 -131 -81t-144 -36v-231h-80v233q-170 23 -274 141.5t-104 288.5zM276 692q0 -135 85 -237.5t210 -116.5v715q-133 -23 -214 -122.5 t-81 -238.5z" />
<glyph unicode="&#xa3;" horiz-adv-x="1120" d="M139 45q45 53 115 86t129 31q115 109 115 219q0 6 -4 51h-226v82h203q-61 119 -147 252q-98 147 -99 266q0 145 105.5 246.5t259.5 101.5q152 0 250 -102t98 -260h-86q-6 92 -35 147q-33 61 -96.5 96t-138.5 35q-111 0 -189 -78.5t-78 -191.5q0 -57 20.5 -102t117.5 -201 q84 -137 112 -209h246v-82h-231q6 -35 6 -57q0 -123 -103 -232l131 -45q104 -37 148 -37q113 0 194 144l74 -45q-111 -186 -258 -187q-61 0 -223 58q-123 43 -168 43q-84 0 -193 -94z" />
<glyph unicode="&#xa4;" horiz-adv-x="1366" d="M143 1196l54 53l184 -184q141 115 301 115q162 0 299 -113l186 182l54 -53l-185 -184q109 -135 109 -295q0 -156 -111 -293l187 -186l-52 -54l-188 187q-137 -113 -297 -113q-156 0 -297 109l-184 -185l-53 56l184 182q-113 137 -113 299q0 158 107 293zM305 719 q0 -158 110.5 -269.5t268.5 -111.5q156 0 266.5 112.5t110.5 272.5q0 154 -111.5 265.5t-265.5 111.5q-158 0 -268.5 -111.5t-110.5 -269.5z" />
<glyph unicode="&#xa5;" horiz-adv-x="1120" d="M61 1366h105l387 -686l399 686h107l-285 -483h248v-82h-297l-125 -211h422v-82h-426v-508h-88v508h-410v82h406l-121 211h-285v82h238z" />
<glyph unicode="&#xa6;" d="M467 313h88v-655h-88v655zM467 698v668h88v-668h-88z" />
<glyph unicode="&#xa7;" horiz-adv-x="1120" d="M205 582q0 229 221 331q-102 53 -145 119t-43 168q0 143 92 228t248 85q211 0 284 -145q31 -59 41 -207h-92q0 270 -236 271q-113 0 -179 -64.5t-66 -173.5q0 -106 84 -172q33 -27 62.5 -39t131.5 -43q170 -53 238.5 -135t68.5 -219q0 -217 -221 -330q199 -88 199 -299 q0 -143 -88 -224t-246 -81q-217 0 -287 137q-31 57 -36 217h90q0 -154 53 -213t180 -59q113 0 177.5 61.5t64.5 165.5q0 133 -115 199q-39 23 -205 82q-143 51 -209.5 133t-66.5 207zM297 588q0 -113 77 -191t187 -78q109 0 185.5 78t76.5 186.5t-77.5 186.5t-186.5 78 q-106 0 -184 -77t-78 -183z" />
<glyph unicode="&#xa8;" d="M268 1122.5q0 30.5 22.5 52t53.5 21.5t52.5 -21.5t21.5 -52t-22.5 -53t-51.5 -22.5q-31 0 -53.5 22.5t-22.5 53zM608 1122q0 29 22.5 51.5t53.5 22.5q29 0 51.5 -21.5t22.5 -52t-22.5 -53t-51.5 -22.5q-33 0 -54.5 22t-21.5 53z" />
<glyph unicode="&#xa9;" horiz-adv-x="1515" d="M55 688q0 291 209 494.5t506 203.5q283 0 487.5 -207.5t204.5 -494.5q0 -291 -205.5 -497.5t-496.5 -206.5q-293 0 -499 206.5t-206 501.5zM154 688q0 -254 176 -432t430 -178q250 0 427 178t177 428q0 246 -177 425t-419 179q-276 0 -459 -201q-155 -174 -155 -399z M383 674q0 164 120 282.5t283 118.5q143 0 267 -104v-109q-119 139 -267 139q-131 0 -228 -99t-97 -232q0 -129 97 -226.5t228 -97.5q150 0 267 135v-106q-127 -100 -265 -101q-164 0 -284.5 119t-120.5 281z" />
<glyph unicode="&#xaa;" horiz-adv-x="690" d="M59 1083q0 125 75 204t192 79q133 0 215 -106v94h53v-549h-53v98q-76 -113 -213 -112q-117 0 -193 82.5t-76 209.5zM115 1085q0 -106 60.5 -175.5t154.5 -69.5t154.5 69.5t60.5 175.5q0 113 -68 172q-66 59 -147 60q-90 0 -152.5 -67t-62.5 -165z" />
<glyph unicode="&#xab;" horiz-adv-x="710" d="M68 424l264 305l51 -49l-217 -256l217 -258l-51 -49zM285 424l264 305l53 -49l-219 -256l219 -258l-53 -49z" />
<glyph unicode="&#xac;" d="M68 465v82h886v-547h-88v465h-798z" />
<glyph unicode="&#xad;" horiz-adv-x="344" d="M0 383v82h344v-82h-344z" />
<glyph unicode="&#xae;" horiz-adv-x="1515" d="M55 688q0 291 209 494.5t506 203.5q283 0 487.5 -207.5t204.5 -494.5q0 -291 -205.5 -497.5t-496.5 -206.5q-293 0 -499 206.5t-206 501.5zM154 688q0 -256 176 -433t430 -177q250 0 427 178t177 428q0 246 -177 425t-419 179q-276 0 -459 -201q-155 -172 -155 -399z M600 287v778h119q250 0 250 -213q0 -96 -64 -156q-45 -43 -141 -51l248 -358h-94l-242 356v-356h-76zM676 715h57q158 0 158 139t-168 139h-47v-278z" />
<glyph unicode="&#xaf;" d="M272 1055v80h478v-80h-478z" />
<glyph unicode="&#xb0;" horiz-adv-x="1120" d="M287 1092q0 115 81 194.5t195 79.5q111 0 191 -81t80 -191q0 -113 -80 -194t-192.5 -81t-193.5 80t-81 193zM369 1094q0 -80 56 -136.5t136 -56.5q78 0 134.5 56.5t56.5 136.5q0 78 -56.5 134t-132.5 56q-82 0 -138 -55t-56 -135z" />
<glyph unicode="&#xb1;" horiz-adv-x="1120" d="M63 0v82h992v-82h-992zM63 655v82h455v449h82v-449h455v-82h-455v-448h-82v448h-455z" />
<glyph unicode="&#xb2;" horiz-adv-x="559" d="M61 807l248 254q98 100 99 156q0 45 -38 76.5t-89 31.5q-41 0 -75 -21.5t-42 -56.5q-4 -12 -6 -49h-66q2 47 8 74q16 49 68.5 81.5t116.5 32.5q78 0 133 -49t55 -120q0 -49 -24.5 -87t-108.5 -126l-131 -138h260v-59h-408z" />
<glyph unicode="&#xb3;" horiz-adv-x="559" d="M92 967h64l2 -13q16 -94 112 -94q49 0 85 33t36 78q0 96 -133 102v60h12q53 4 83 30.5t30 67.5t-28.5 67.5t-71.5 26.5q-49 0 -73 -23.5t-32 -78.5h-63q6 51 14 69q35 94 152 94q72 0 120 -45t48 -110q0 -78 -72 -125q80 -45 80 -135q0 -72 -54.5 -122t-132.5 -50 q-55 0 -100 26.5t-64 67.5q-10 21 -14 74z" />
<glyph unicode="&#xb4;" d="M436 1034l187 281l90 -51l-217 -263z" />
<glyph unicode="&#xb5;" horiz-adv-x="892" d="M145 -489v1325h82v-498q0 -129 27 -184q23 -45 76 -73t114 -28q63 0 116.5 28t76.5 73q27 55 27 184v498h81v-527q0 -158 -61 -229q-86 -102 -235 -103q-127 0 -222 89v-555h-82z" />
<glyph unicode="&#xb6;" horiz-adv-x="1120" d="M117 1024q0 156 96 252q86 90 276 90h498l-37 -76h-90v-1499h-82v1499h-235v-1499h-82v901q-123 0 -205 49q-63 41 -101 117t-38 166z" />
<glyph unicode="&#xb7;" horiz-adv-x="421" d="M137 424q0 29 22.5 51.5t53.5 22.5t52.5 -21.5t21.5 -52.5t-22.5 -53.5t-51.5 -22.5q-31 0 -53.5 22.5t-22.5 53.5z" />
<glyph unicode="&#xb8;" d="M377 -365l168 263l100 -41l-199 -254z" />
<glyph unicode="&#xb9;" horiz-adv-x="559" d="M164 1319l31 59h135v-573h-66v514h-100z" />
<glyph unicode="&#xba;" horiz-adv-x="694" d="M59 1083q0 117 85 200t202 83q121 0 204 -83t83 -204t-84 -203.5t-205 -82.5q-119 0 -202 84.5t-83 205.5zM115 1083q0 -100 65.5 -170.5t161.5 -70.5q100 0 168 68.5t68 169t-68 169t-166 68.5q-94 0 -161.5 -69t-67.5 -165z" />
<glyph unicode="&#xbb;" horiz-adv-x="710" d="M109 166l219 258l-219 256l51 49l264 -305l-264 -307zM326 166l219 258l-219 256l51 49l266 -305l-266 -307z" />
<glyph unicode="&#xbc;" horiz-adv-x="1851" d="M248 1305l33 61h176v-819h-70v758h-139zM492 2l811 1395l57 -31l-809 -1397zM1104 154l538 706v-645h121v-61h-121v-154h-69v154h-469zM1233 215h340v447z" />
<glyph unicode="&#xbd;" horiz-adv-x="1851" d="M248 1305l33 61h176v-819h-70v758h-139zM492 2l811 1395l57 -31l-809 -1397zM1165 0l342 352q82 84 114 136.5t32 103.5q0 72 -57.5 123t-139.5 51q-51 0 -97 -22.5t-69 -59.5q-25 -37 -26 -106h-70q2 94 37 141q33 49 97.5 79.5t131.5 30.5q109 0 185.5 -69.5 t76.5 -169.5q0 -70 -36.5 -128.5t-151.5 -176.5l-215 -224h399v-61h-553z" />
<glyph unicode="&#xbe;" horiz-adv-x="1851" d="M139 758h68q8 -63 29 -88q23 -31 65.5 -51.5t83.5 -20.5q78 0 134 53.5t56 124.5q0 154 -194 164v61q86 4 134 46.5t48 111.5q0 66 -45 110t-115 44q-145 0 -163 -154h-68q8 76 35 119q59 98 192 98q98 0 166 -62.5t68 -154.5q0 -125 -119 -186q59 -25 95 -78t36 -119 q0 -100 -75.5 -170.5t-184.5 -70.5q-68 0 -126 29.5t-89 78.5q-29 45 -31 115zM492 2l808 1395l60 -31l-809 -1397zM1102 154l538 706v-645h123v-61h-123v-154h-69v154h-469zM1231 215h340v447z" />
<glyph unicode="&#xbf;" horiz-adv-x="727" d="M150 213q0 121 83 170q35 20 134 47q57 14 78.5 36.5t21.5 65.5q0 47 -27.5 74t-74.5 27q-98 0 -107 -119h-82q10 197 189 197q82 0 135 -53.5t53 -131.5q0 -127 -158 -170q-98 -29 -116 -43q-45 -35 -46 -108q0 -59 37 -95t96.5 -36t93.5 34.5t34 98.5q0 23 -7 55h82 q8 -41 9 -69q0 -84 -61.5 -141.5t-151.5 -57.5q-94 0 -154.5 61.5t-60.5 157.5zM287 846q0 31 22.5 53.5t52.5 22.5q29 0 51.5 -22.5t22.5 -53.5t-22.5 -52.5t-53 -21.5t-52 21.5t-21.5 52.5z" />
<glyph unicode="&#xc0;" horiz-adv-x="1196" d="M27 0l573 1407l569 -1407h-100l-180 449h-582l-182 -449h-98zM336 1671l94 64l250 -222l-72 -53zM340 530h516l-256 648z" />
<glyph unicode="&#xc1;" horiz-adv-x="1196" d="M27 0l573 1407l569 -1407h-100l-180 449h-582l-182 -449h-98zM340 530h516l-256 648zM539 1513l249 222l95 -64l-273 -211z" />
<glyph unicode="&#xc2;" horiz-adv-x="1196" d="M27 0l573 1407l569 -1407h-100l-180 449h-582l-182 -449h-98zM340 530h516l-256 648zM356 1520l256 215l254 -215l-73 -58l-181 154l-182 -154z" />
<glyph unicode="&#xc3;" horiz-adv-x="1196" d="M27 0l573 1407l569 -1407h-100l-180 449h-582l-182 -449h-98zM340 530h516l-256 648zM346 1548q31 68 63.5 95.5t82.5 27.5q47 0 126 -35q82 -37 117 -37q29 0 46.5 16.5t37.5 61.5l58 -45q-39 -123 -146 -123q-41 0 -121 33q-96 39 -124.5 39t-46 -16.5t-33.5 -61.5z " />
<glyph unicode="&#xc4;" horiz-adv-x="1196" d="M27 0l573 1407l569 -1407h-100l-180 449h-582l-182 -449h-98zM336 1591q0 33 23.5 55.5t56.5 22.5t55.5 -22.5t22.5 -55t-22.5 -56.5t-55.5 -24q-35 0 -57.5 22.5t-22.5 57.5zM340 530h516l-256 648zM717 1591q0 33 23.5 55.5t56 22.5t55 -22.5t22.5 -55t-22.5 -56.5 t-54.5 -24q-35 0 -57.5 22.5t-22.5 57.5z" />
<glyph unicode="&#xc5;" horiz-adv-x="1196" d="M27 0l573 1407l569 -1407h-100l-180 449h-582l-182 -449h-98zM340 530h516l-256 648zM446 1614q0 66 49.5 114t114.5 48q68 0 116 -48.5t48 -116t-48 -115.5t-115.5 -48t-116 48t-48.5 118zM526 1614q0 -35 24.5 -60.5t59.5 -25.5t59.5 24.5t24.5 59.5t-24.5 59.5 t-59.5 24.5q-33 0 -58.5 -24.5t-25.5 -57.5z" />
<glyph unicode="&#xc6;" horiz-adv-x="1742" d="M27 0l551 1366h593l33 -82h-563l203 -496h549l32 -81h-546l251 -625h566l33 -82h-662l-180 449h-586l-176 -449h-98zM336 530h516l-260 644z" />
<glyph unicode="&#xc7;" horiz-adv-x="1386" d="M109 680q0 287 209.5 495.5t498.5 208.5q250 0 459 -176v-123q-84 90 -160 134q-145 82 -301 81q-248 0 -431 -186t-183 -438q0 -276 213 -457q186 -158 401 -158q174 0 342 105q55 35 119 100v-119q-217 -170 -455 -170q-289 0 -500.5 209t-211.5 494zM586 -369l178 273 l104 -51l-211 -259z" />
<glyph unicode="&#xc8;" horiz-adv-x="948" d="M184 0v1366h654v-82h-566v-496h553v-81h-553v-625h566v-82h-654zM293 1671l94 64l250 -222l-72 -53z" />
<glyph unicode="&#xc9;" horiz-adv-x="948" d="M184 0v1366h654v-82h-566v-496h553v-81h-553v-625h566v-82h-654zM428 1513l250 222l94 -64l-272 -211z" />
<glyph unicode="&#xca;" horiz-adv-x="948" d="M184 0v1366h654v-82h-566v-496h553v-81h-553v-625h566v-82h-654zM272 1520l256 215l254 -215l-73 -58l-181 154l-182 -154z" />
<glyph unicode="&#xcb;" horiz-adv-x="948" d="M184 0v1366h654v-82h-566v-496h553v-81h-553v-625h566v-82h-654zM252 1591q0 33 23.5 55.5t56.5 22.5t55.5 -22.5t22.5 -55t-22.5 -56.5t-55.5 -24t-56.5 22.5t-23.5 57.5zM633 1591q0 33 23.5 55.5t56 22.5t55.5 -22.5t23 -55t-23 -56.5t-55.5 -24t-56 22.5t-23.5 57.5z " />
<glyph unicode="&#xcc;" horiz-adv-x="456" d="M-14 1671l92 64l223 -222l-72 -53zM184 0v1366h88v-1366h-88z" />
<glyph unicode="&#xcd;" horiz-adv-x="456" d="M168 1513l225 222l90 -64l-243 -211zM184 0v1366h88v-1366h-88z" />
<glyph unicode="&#xce;" horiz-adv-x="456" d="M0 1520l236 215l233 -215l-70 -58l-163 154l-166 -154zM184 0v1366h88v-1366h-88z" />
<glyph unicode="&#xcf;" horiz-adv-x="456" d="M29 1591q0 33 23.5 55.5t56 22.5t55 -22.5t22.5 -55t-22.5 -56.5t-54.5 -24q-35 0 -57.5 22.5t-22.5 57.5zM184 0v1366h88v-1366h-88zM287 1591.5q0 32.5 23.5 55t56 22.5t55 -22.5t22.5 -55t-23.5 -56.5t-53.5 -24q-33 0 -56.5 24t-23.5 56.5z" />
<glyph unicode="&#xd0;" horiz-adv-x="1263" d="M47 702v82h137v582h271q309 0 499 -188q201 -201 201 -496t-201 -492q-190 -190 -499 -190h-271v702h-137zM272 82h181q260 0 426 158q184 172 184 442q0 264 -171 433t-439 169h-181v-500h342v-82h-342v-620z" />
<glyph unicode="&#xd1;" horiz-adv-x="1603" d="M184 0v1380l1147 -1200v1186h88v-1401l-1147 1200v-1165h-88zM563 1548q31 68 63.5 95.5t82.5 27.5q47 0 127 -35q82 -37 116 -37q29 0 46.5 16.5t37.5 61.5l58 -45q-39 -123 -146 -123q-41 0 -121 33q-96 39 -124.5 39t-46 -16.5t-33.5 -61.5z" />
<glyph unicode="&#xd2;" horiz-adv-x="1634" d="M109 692q0 279 210.5 485.5t495.5 206.5q291 0 500 -207.5t209 -494.5q0 -291 -210 -498t-503 -207q-289 0 -495.5 211t-206.5 504zM201 690q0 -281 198 -463q182 -166 412 -166q256 0 438.5 182.5t182.5 438.5q0 254 -182.5 436t-434.5 182q-250 0 -432 -181t-182 -429z M586 1671l94 64l250 -222l-72 -53z" />
<glyph unicode="&#xd3;" horiz-adv-x="1634" d="M109 692q0 279 210.5 485.5t495.5 206.5q291 0 500 -207.5t209 -494.5q0 -291 -210 -498t-503 -207q-289 0 -495.5 211t-206.5 504zM201 690q0 -281 198 -463q182 -166 412 -166q256 0 438.5 182.5t182.5 438.5q0 254 -182.5 436t-434.5 182q-250 0 -432 -181t-182 -429z M743 1513l250 222l94 -64l-272 -211z" />
<glyph unicode="&#xd4;" horiz-adv-x="1634" d="M109 692q0 279 210.5 485.5t495.5 206.5q291 0 500 -207.5t209 -494.5q0 -291 -210 -498t-503 -207q-289 0 -495.5 211t-206.5 504zM201 690q0 -281 198 -463q182 -166 412 -166q256 0 438.5 182.5t182.5 438.5q0 254 -182.5 436t-434.5 182q-250 0 -432 -181t-182 -429z M575 1520l256 215l254 -215l-73 -58l-181 154l-182 -154z" />
<glyph unicode="&#xd5;" horiz-adv-x="1634" d="M109 692q0 279 210.5 485.5t495.5 206.5q291 0 500 -207.5t209 -494.5q0 -291 -210 -498t-503 -207q-289 0 -495.5 211t-206.5 504zM201 690q0 -281 198 -463q182 -166 412 -166q256 0 438.5 182.5t182.5 438.5q0 254 -182.5 436t-434.5 182q-250 0 -432 -181t-182 -429z M578 1548q31 68 63.5 95.5t81.5 27.5q47 0 127 -35q82 -37 117 -37q29 0 46 16.5t38 61.5l57 -45q-39 -123 -145 -123q-41 0 -121 33q-96 39 -125 39t-46.5 -16.5t-33.5 -61.5z" />
<glyph unicode="&#xd6;" horiz-adv-x="1634" d="M109 692q0 279 210.5 485.5t495.5 206.5q291 0 500 -207.5t209 -494.5q0 -291 -210 -498t-503 -207q-289 0 -495.5 211t-206.5 504zM201 690q0 -281 198 -463q182 -166 412 -166q256 0 438.5 182.5t182.5 438.5q0 254 -182.5 436t-434.5 182q-250 0 -432 -181t-182 -429z M555 1591q0 33 23.5 55.5t56.5 22.5t55.5 -22.5t22.5 -55t-22.5 -56.5t-55.5 -24t-56.5 22.5t-23.5 57.5zM936 1591q0 33 23.5 55.5t56.5 22.5t55.5 -22.5t22.5 -55t-22.5 -56.5t-55.5 -24t-56.5 22.5t-23.5 57.5z" />
<glyph unicode="&#xd7;" horiz-adv-x="1120" d="M158 350l346 346l-346 346l55 58l346 -348l348 348l56 -58l-347 -346l347 -346l-56 -55l-348 346l-346 -346z" />
<glyph unicode="&#xd8;" horiz-adv-x="1634" d="M109 684q0 285 209.5 492.5t496.5 207.5q254 0 461 -172l166 166l55 -53l-164 -166q190 -209 191 -479q0 -285 -210 -494t-497 -209q-258 0 -477 187l-166 -172l-51 55l162 170q-176 205 -176 467zM201 682q0 -231 149 -406l862 877q-176 147 -397 147q-250 0 -432 -183 t-182 -435zM403 221q184 -160 414 -160q250 0 432.5 183.5t182.5 435.5q0 242 -164 422z" />
<glyph unicode="&#xd9;" horiz-adv-x="1296" d="M184 487v879h88v-854q0 -127 10.5 -187.5t39.5 -105.5q45 -70 136 -114t189 -44q100 0 191.5 44.5t136.5 113.5q29 45 39 105.5t10 187.5v854h88v-879q0 -135 -14.5 -200.5t-57.5 -122.5q-61 -86 -166.5 -136.5t-226.5 -50.5q-119 0 -224.5 50.5t-166.5 136.5 q-43 59 -57.5 124.5t-14.5 198.5zM406 1671l94 64l250 -222l-72 -53z" />
<glyph unicode="&#xda;" horiz-adv-x="1296" d="M184 487v879h88v-854q0 -127 10.5 -187.5t39.5 -105.5q45 -70 136 -114t189 -44q100 0 191.5 44.5t136.5 113.5q29 45 39 105.5t10 187.5v854h88v-879q0 -135 -14.5 -200.5t-57.5 -122.5q-61 -86 -166.5 -136.5t-226.5 -50.5q-119 0 -224.5 50.5t-166.5 136.5 q-43 59 -57.5 124.5t-14.5 198.5zM567 1513l250 222l94 -64l-272 -211z" />
<glyph unicode="&#xdb;" horiz-adv-x="1296" d="M184 487v879h88v-854q0 -127 10.5 -187.5t39.5 -105.5q45 -70 136 -114t189 -44q100 0 191.5 44.5t136.5 113.5q29 45 39 105.5t10 187.5v854h88v-879q0 -135 -14.5 -200.5t-57.5 -122.5q-61 -86 -166.5 -136.5t-226.5 -50.5q-119 0 -224.5 50.5t-166.5 136.5 q-43 59 -57.5 124.5t-14.5 198.5zM408 1520l256 215l254 -215l-74 -58l-180 154l-183 -154z" />
<glyph unicode="&#xdc;" horiz-adv-x="1296" d="M184 487v879h88v-854q0 -127 10.5 -187.5t39.5 -105.5q45 -70 136 -114t189 -44q100 0 191.5 44.5t136.5 113.5q29 45 39 105.5t10 187.5v854h88v-879q0 -135 -14.5 -200.5t-57.5 -122.5q-61 -86 -166.5 -136.5t-226.5 -50.5q-119 0 -224.5 50.5t-166.5 136.5 q-43 59 -57.5 124.5t-14.5 198.5zM393 1591q0 33 23.5 55.5t56.5 22.5t55.5 -22.5t22.5 -55t-22.5 -56.5t-55.5 -24q-35 0 -57.5 22.5t-22.5 57.5zM774 1591q0 33 23.5 55.5t56.5 22.5t55.5 -22.5t22.5 -55t-22.5 -56.5t-55.5 -24q-35 0 -57.5 22.5t-22.5 57.5z" />
<glyph unicode="&#xdd;" horiz-adv-x="1052" d="M27 1366h102l389 -686l400 686h104l-461 -782v-584h-88v584zM444 1513l250 222l94 -64l-272 -211z" />
<glyph unicode="&#xde;" horiz-adv-x="911" d="M184 0v1366h88v-205h174q201 0 299 -104q98 -102 99 -254q0 -168 -105.5 -263.5t-289.5 -95.5h-177v-444h-88zM272 526h179q137 0 219 76t82 201q0 127 -74 201q-76 76 -240 75h-166v-553z" />
<glyph unicode="&#xdf;" horiz-adv-x="1622" d="M109 188l71 33q29 -61 56 -94q59 -72 163 -72q88 0 152.5 58.5t64.5 138.5q0 53 -35.5 88t-144.5 84q-117 51 -176 88q-96 61 -96 170q0 100 71.5 166.5t180.5 66.5q162 0 246 -141l-62 -51q-45 66 -85 91.5t-101 25.5q-72 0 -119 -45t-47 -113q0 -49 32.5 -81t127.5 -75 q131 -59 188 -94q104 -66 104 -180q0 -113 -89 -192.5t-214 -79.5q-200 -1 -288 208zM920 188l71 33q29 -61 56 -94q59 -72 163 -72q88 0 152.5 58.5t64.5 138.5q0 53 -35.5 88t-144.5 84q-117 51 -176 88q-96 61 -96 170q0 100 71.5 166.5t180.5 66.5q162 0 243 -141 l-61 -51q-43 66 -83 91.5t-101 25.5q-72 0 -119 -45t-47 -113q0 -49 32.5 -81t127.5 -75q131 -59 188 -94q104 -66 104 -180q0 -113 -89 -192.5t-214 -79.5q-200 -1 -288 208z" />
<glyph unicode="&#xe0;" horiz-adv-x="858" d="M27 0l403 954l399 -954h-90l-121 291h-380l-121 -291h-90zM201 1264l90 51l186 -281l-61 -33zM272 369h312l-154 379z" />
<glyph unicode="&#xe1;" horiz-adv-x="858" d="M27 0l403 954l399 -954h-90l-121 291h-380l-121 -291h-90zM272 369h312l-154 379zM373 1034l186 281l90 -51l-217 -263z" />
<glyph unicode="&#xe2;" horiz-adv-x="858" d="M27 0l403 954l399 -954h-90l-121 291h-380l-121 -291h-90zM186 1053l248 192l250 -192l-68 -52l-182 140l-182 -140zM272 369h312l-154 379z" />
<glyph unicode="&#xe3;" horiz-adv-x="858" d="M27 0l403 954l399 -954h-90l-121 291h-380l-121 -291h-90zM186 1081q51 117 144 117q41 0 121 -35q88 -37 116 -37q57 0 88 76l54 -41q-18 -53 -58.5 -85t-89.5 -32q-33 0 -115 35q-86 37 -127 37q-53 0 -79 -74zM272 369h312l-154 379z" />
<glyph unicode="&#xe4;" horiz-adv-x="858" d="M27 0l403 954l399 -954h-90l-121 291h-380l-121 -291h-90zM190 1122.5q0 30.5 23 52t53.5 21.5t52 -21.5t21.5 -52t-22.5 -53t-51.5 -22.5q-31 0 -53.5 22.5t-22.5 53zM272 369h312l-154 379zM530 1122q0 29 22.5 51.5t53.5 22.5q29 0 51.5 -21.5t22.5 -52t-22.5 -53 t-51.5 -22.5q-33 0 -54.5 22t-21.5 53z" />
<glyph unicode="&#xe5;" horiz-adv-x="858" d="M27 0l403 954l399 -954h-90l-121 291h-380l-121 -291h-90zM272 369h312l-154 379zM279 1171q0 63 46 109.5t109 46.5q66 0 112 -45t46 -110.5t-46 -111.5t-110 -46q-66 0 -111.5 45.5t-45.5 111.5zM350 1171q0 -35 25.5 -60.5t60.5 -25.5t59.5 25t24.5 59.5t-25.5 59 t-60.5 24.5q-33 0 -58.5 -24.5t-25.5 -57.5z" />
<glyph unicode="&#xe6;" horiz-adv-x="1206" d="M27 0l366 907h428l31 -78h-377l121 -294h369l30 -78h-368l155 -379h377l33 -78h-469l-117 289h-375l-114 -289h-90zM264 367h309l-155 389z" />
<glyph unicode="&#xe7;" horiz-adv-x="1011" d="M96 446q0 193 143.5 331t342.5 138q172 0 321 -122v-117q-143 164 -321 164q-162 0 -282 -118t-120 -278q0 -156 120 -272.5t282 -116.5q178 0 321 156v-115q-156 -117 -317 -116q-199 0 -344.5 138t-145.5 328zM399 -365l168 263l101 -41l-199 -254z" />
<glyph unicode="&#xe8;" horiz-adv-x="768" d="M184 0v907h475v-78h-393v-294h385v-78h-385v-379h393v-78h-475zM199 1264l90 51l186 -281l-61 -33z" />
<glyph unicode="&#xe9;" horiz-adv-x="768" d="M184 0v907h475v-78h-393v-294h385v-78h-385v-379h393v-78h-475zM371 1034l186 281l90 -51l-217 -263z" />
<glyph unicode="&#xea;" horiz-adv-x="768" d="M182 1053l248 192l250 -192l-68 -52l-182 140l-182 -140zM184 0v907h475v-78h-393v-294h383v-78h-383v-379h393v-78h-475z" />
<glyph unicode="&#xeb;" horiz-adv-x="768" d="M184 0v907h475v-78h-393v-294h385v-78h-385v-379h393v-78h-475zM195 1122.5q0 30.5 22.5 52t53 21.5t52 -21.5t21.5 -52t-22.5 -53t-51.5 -22.5q-31 0 -53 22.5t-22 53zM535 1122q0 29 22.5 51.5t52.5 22.5q29 0 51.5 -21.5t22.5 -52t-22.5 -53t-51.5 -22.5q-33 0 -54 22 t-21 53z" />
<glyph unicode="&#xec;" horiz-adv-x="450" d="M-2 1264l90 51l186 -281l-61 -33zM184 0v907h82v-907h-82z" />
<glyph unicode="&#xed;" horiz-adv-x="450" d="M170 1034l186 281l90 -51l-217 -263zM184 0v907h82v-907h-82z" />
<glyph unicode="&#xee;" horiz-adv-x="450" d="M-16 1053l247 192l250 -192l-67 -52l-183 140l-182 -140zM184 0v907h82v-907h-82z" />
<glyph unicode="&#xef;" horiz-adv-x="450" d="M35 1122.5q0 30.5 22.5 52t53 21.5t52 -21.5t21.5 -52t-22.5 -53t-50.5 -22.5q-31 0 -53.5 22.5t-22.5 53zM184 0v907h82v-907h-82zM279 1122.5q0 30.5 22.5 52t53 21.5t52 -21.5t21.5 -52t-22.5 -53t-51.5 -22.5q-31 0 -53 22.5t-22 53z" />
<glyph unicode="&#xf0;" horiz-adv-x="960" d="M68 418v78h116v411h201q213 0 342 -127q137 -131 137 -325.5t-137 -327.5q-129 -127 -342 -127h-201v418h-116zM266 78h117q174 0 285.5 105.5t111.5 269.5q0 166 -111.5 271t-285.5 105h-117v-333h230v-78h-230v-340z" />
<glyph unicode="&#xf1;" horiz-adv-x="1218" d="M184 0v936l768 -776v747h82v-948l-768 776v-735h-82zM369 1081q51 117 143 117q41 0 121 -35q88 -37 117 -37q57 0 88 76l53 -41q-18 -53 -58 -85t-90 -32q-33 0 -114 35q-86 37 -127 37q-53 0 -80 -74z" />
<glyph unicode="&#xf2;" horiz-adv-x="1159" d="M96 455q0 186 144.5 323t339.5 137q199 0 342 -138t143 -328q0 -193 -143.5 -331t-343.5 -138q-199 0 -340.5 140t-141.5 335zM180 455q0 -164 117 -282t281 -118q166 0 284.5 116t118.5 278q0 160 -119 275.5t-282 115.5q-162 0 -281 -114.5t-119 -270.5zM354 1264 l90 51l187 -281l-62 -33z" />
<glyph unicode="&#xf3;" horiz-adv-x="1159" d="M96 455q0 186 144.5 323t339.5 137q199 0 342 -138t143 -328q0 -193 -143.5 -331t-343.5 -138q-199 0 -340.5 140t-141.5 335zM180 455q0 -164 117 -282t281 -118q166 0 284.5 116t118.5 278q0 160 -119 275.5t-282 115.5q-162 0 -281 -114.5t-119 -270.5zM526 1034 l187 281l90 -51l-217 -263z" />
<glyph unicode="&#xf4;" horiz-adv-x="1159" d="M96 455q0 186 144.5 323t339.5 137q199 0 342 -138t143 -328q0 -193 -143.5 -331t-343.5 -138q-199 0 -340.5 140t-141.5 335zM180 455q0 -164 117 -282t281 -118q166 0 284.5 116t118.5 278q0 160 -119 275.5t-282 115.5q-162 0 -281 -114.5t-119 -270.5zM344 1053 l248 192l250 -192l-68 -52l-182 140l-182 -140z" />
<glyph unicode="&#xf5;" horiz-adv-x="1159" d="M96 455q0 186 144.5 323t339.5 137q199 0 342 -138t143 -328q0 -193 -143.5 -331t-343.5 -138q-199 0 -340.5 140t-141.5 335zM180 455q0 -164 117 -282t281 -118q166 0 284.5 116t118.5 278q0 160 -119 275.5t-282 115.5q-162 0 -281 -114.5t-119 -270.5zM340 1081 q51 117 143 117q41 0 121 -35q88 -37 117 -37q57 0 88 76l53 -41q-18 -53 -58 -85t-89 -32q-33 0 -115 35q-86 37 -127 37q-53 0 -80 -74z" />
<glyph unicode="&#xf6;" horiz-adv-x="1159" d="M96 455q0 186 144.5 323t339.5 137q199 0 342 -138t143 -328q0 -193 -143.5 -331t-343.5 -138q-199 0 -340.5 140t-141.5 335zM180 455q0 -164 117 -282t281 -118q166 0 284.5 116t118.5 278q0 160 -119 275.5t-282 115.5q-162 0 -281 -114.5t-119 -270.5zM342 1122.5 q0 30.5 22.5 52t53.5 21.5t52.5 -21.5t21.5 -52t-23 -53t-51 -22.5q-31 0 -53.5 22.5t-22.5 53zM682 1122q0 29 22.5 51.5t53.5 22.5q29 0 51 -21.5t22 -52t-22.5 -53t-50.5 -22.5q-33 0 -54.5 22t-21.5 53z" />
<glyph unicode="&#xf7;" horiz-adv-x="1120" d="M63 655v82h992v-82h-992zM483 473q0 29 22.5 51.5t53.5 22.5t52.5 -21.5t21.5 -52.5t-22.5 -53.5t-51.5 -22.5q-31 0 -53.5 22.5t-22.5 53.5zM483 909q0 29 22.5 51.5t53.5 22.5t52.5 -21.5t21.5 -52t-22.5 -53t-51.5 -22.5q-31 0 -53.5 22t-22.5 53z" />
<glyph unicode="&#xf8;" horiz-adv-x="1185" d="M109 449q0 190 143 328t340 138q168 0 309 -110l115 115l51 -52l-113 -112q123 -133 123 -310q0 -190 -143 -328t-340 -138q-170 0 -309 108l-117 -115l-49 50l114 112q-124 138 -124 314zM193 449q0 -143 96 -256l555 557q-117 90 -252 90q-164 0 -281.5 -115.5 t-117.5 -275.5zM340 145q119 -90 254 -90q164 0 281.5 116t117.5 275q0 139 -96 254z" />
<glyph unicode="&#xf9;" horiz-adv-x="1021" d="M184 322v585h82v-569q0 -137 31 -186q29 -43 88 -70t127 -27q66 0 125 27t86 70q33 47 33 186v569h82v-585q0 -88 -10.5 -132.5t-41.5 -85.5q-92 -125 -274 -124q-184 0 -276 124q-31 41 -41.5 85.5t-10.5 132.5zM285 1264l90 51l186 -281l-61 -33z" />
<glyph unicode="&#xfa;" horiz-adv-x="1021" d="M184 322v585h82v-569q0 -137 31 -186q29 -43 88 -70t127 -27q66 0 125 27t86 70q33 47 33 186v569h82v-585q0 -88 -10.5 -132.5t-41.5 -85.5q-92 -125 -274 -124q-184 0 -276 124q-31 41 -41.5 85.5t-10.5 132.5zM457 1034l186 281l90 -51l-217 -263z" />
<glyph unicode="&#xfb;" horiz-adv-x="1021" d="M184 322v585h82v-569q0 -137 31 -186q29 -43 88 -70t127 -27q66 0 125 27t86 70q33 47 33 186v569h82v-585q0 -88 -10.5 -132.5t-41.5 -85.5q-92 -125 -274 -124q-184 0 -276 124q-31 41 -41.5 85.5t-10.5 132.5zM274 1053l248 192l250 -192l-67 -52l-183 140l-182 -140z " />
<glyph unicode="&#xfc;" horiz-adv-x="1021" d="M184 322v585h82v-569q0 -137 31 -186q29 -43 88 -70t127 -27q66 0 125 27t86 70q33 47 33 186v569h82v-585q0 -88 -10.5 -132.5t-41.5 -85.5q-92 -125 -274 -124q-184 0 -276 124q-31 41 -41.5 85.5t-10.5 132.5zM272 1122.5q0 30.5 22.5 52t53.5 21.5t52.5 -21.5 t21.5 -52t-22.5 -53t-51.5 -22.5q-31 0 -53.5 22.5t-22.5 53zM612 1122q0 29 22.5 51.5t53.5 22.5q29 0 51.5 -21.5t22.5 -52t-22.5 -53t-51.5 -22.5q-33 0 -54.5 22t-21.5 53z" />
<glyph unicode="&#xfd;" horiz-adv-x="770" d="M27 907h94l260 -436l264 436h96l-321 -522v-385h-82v387zM330 1034l186 281l90 -51l-217 -263z" />
<glyph unicode="&#xfe;" horiz-adv-x="731" d="M184 0v907h82v-205h115q139 0 213 -71q70 -70 70 -172q0 -113 -76 -178.5t-207 -65.5h-115v-215h-82zM266 293h117q90 0 143.5 45t53.5 121q0 166 -205 166h-109v-332z" />
<glyph unicode="&#xff;" horiz-adv-x="770" d="M27 907h94l260 -436l264 436h96l-321 -522v-385h-82v387zM147 1122.5q0 30.5 23 52t53.5 21.5t52 -21.5t21.5 -52t-22.5 -53t-51.5 -22.5q-31 0 -53.5 22.5t-22.5 53zM487 1122q0 29 22.5 51.5t53.5 22.5q29 0 51.5 -21.5t22.5 -52t-22.5 -53t-51.5 -22.5q-33 0 -54.5 22 t-21.5 53z" />
<glyph unicode="&#x152;" horiz-adv-x="2193" d="M109 682q0 287 209.5 494.5t500.5 207.5q195 0 358.5 -99t254.5 -273v354h653v-82h-565v-496h551v-81h-551v-625h565v-82h-653v352q-90 -174 -254 -274.5t-357 -100.5q-291 0 -501.5 209t-210.5 496zM201 688q0 -279 205 -465q180 -162 405 -162q254 0 436.5 182.5 t182.5 438.5t-179.5 437t-431.5 181q-248 0 -433 -183t-185 -429z" />
<glyph unicode="&#x153;" horiz-adv-x="1533" d="M96 446q0 193 141.5 330t337.5 137q145 0 261 -77q59 -39 131 -129v200h458v-78h-376v-294h368v-78h-368v-379h376v-78h-458v186q-98 -117 -176 -155q-102 -51 -216 -51q-195 0 -337 139t-142 327zM180 451q0 -162 116 -279t275 -117q164 0 280 115t116 276 q0 160 -115 276t-277 116q-158 0 -276.5 -115.5t-118.5 -271.5z" />
<glyph unicode="&#x178;" horiz-adv-x="1052" d="M27 1366h102l389 -686l400 686h104l-461 -782v-584h-88v584zM262 1591q0 33 23.5 55.5t56.5 22.5t55.5 -22.5t22.5 -55t-22.5 -56.5t-55.5 -24q-35 0 -57.5 22.5t-22.5 57.5zM643 1591q0 33 23.5 55.5t56.5 22.5t55.5 -22.5t22.5 -55t-22.5 -56.5t-55.5 -24 q-35 0 -57.5 22.5t-22.5 57.5z" />
<glyph unicode="&#x2c6;" d="M262 1053l248 192l250 -192l-68 -52l-182 140l-182 -140z" />
<glyph unicode="&#x2dc;" d="M252 1081q51 117 143 117q41 0 121 -35q88 -37 117 -37q57 0 88 76l53 -41q-18 -53 -58 -85t-89 -32q-33 0 -115 35q-86 37 -127 37q-53 0 -80 -74z" />
<glyph unicode="&#x2000;" horiz-adv-x="888" />
<glyph unicode="&#x2001;" horiz-adv-x="1776" />
<glyph unicode="&#x2002;" horiz-adv-x="888" />
<glyph unicode="&#x2003;" horiz-adv-x="1776" />
<glyph unicode="&#x2004;" horiz-adv-x="592" />
<glyph unicode="&#x2005;" horiz-adv-x="444" />
<glyph unicode="&#x2006;" horiz-adv-x="296" />
<glyph unicode="&#x2007;" horiz-adv-x="296" />
<glyph unicode="&#x2008;" horiz-adv-x="222" />
<glyph unicode="&#x2009;" horiz-adv-x="355" />
<glyph unicode="&#x200a;" horiz-adv-x="98" />
<glyph unicode="&#x2010;" horiz-adv-x="344" d="M0 383v82h344v-82h-344z" />
<glyph unicode="&#x2011;" horiz-adv-x="344" d="M0 383v82h344v-82h-344z" />
<glyph unicode="&#x2013;" horiz-adv-x="1120" d="M256 383v82h608v-82h-608z" />
<glyph unicode="&#x2014;" horiz-adv-x="1034" d="M0 383v82h1034v-82h-1034z" />
<glyph unicode="&#x2018;" horiz-adv-x="464" d="M129 1034l152 410l53 -21l-123 -413z" />
<glyph unicode="&#x2019;" horiz-adv-x="464" d="M129 1028l123 416l82 -25l-152 -409z" />
<glyph unicode="&#x201a;" horiz-adv-x="464" d="M129 -281l123 414l82 -24l-152 -410z" />
<glyph unicode="&#x201c;" horiz-adv-x="702" d="M129 1034l152 410l53 -21l-123 -413zM367 1034l151 410l53 -21l-122 -413z" />
<glyph unicode="&#x201d;" horiz-adv-x="702" d="M129 1028l123 416l82 -25l-152 -409zM367 1028l122 416l82 -25l-151 -409z" />
<glyph unicode="&#x201e;" horiz-adv-x="702" d="M129 -281l123 414l82 -24l-152 -410zM367 -281l122 414l82 -24l-151 -410z" />
<glyph unicode="&#x2022;" horiz-adv-x="1366" d="M401 692q0 119 84 202t205 83q113 0 196 -84t83 -199q0 -119 -83 -201.5t-200 -82.5t-201 83.5t-84 198.5z" />
<glyph unicode="&#x2026;" horiz-adv-x="1312" d="M143 61.5q0 30.5 22.5 52t53.5 21.5t52.5 -21.5t21.5 -52t-22.5 -53t-51.5 -22.5q-31 0 -53.5 22.5t-22.5 53zM580 61.5q0 30.5 22.5 52t53 21.5t52 -21.5t21.5 -52t-22.5 -53t-51.5 -22.5q-31 0 -53 22.5t-22 53zM1018 61q0 29 22.5 51.5t53 22.5t52 -21.5t21.5 -52 t-22.5 -53t-50.5 -22.5q-31 0 -53.5 22t-22.5 53z" />
<glyph unicode="&#x202f;" horiz-adv-x="355" />
<glyph unicode="&#x2039;" horiz-adv-x="493" d="M68 424l264 305l51 -49l-217 -256l217 -258l-51 -49z" />
<glyph unicode="&#x203a;" horiz-adv-x="493" d="M109 166l219 258l-219 256l51 49l264 -305l-264 -307z" />
<glyph unicode="&#x205f;" horiz-adv-x="444" />
<glyph unicode="&#x20ac;" horiz-adv-x="1148" d="M98 395l35 84h70q-2 16 -2 39v25h-103l35 84h78q41 193 176 312.5t315 119.5q199 0 349 -160l-35 -84q-131 168 -320 168q-145 0 -255.5 -98.5t-145.5 -257.5h639l-35 -84h-616v-31q0 -14 2 -33h587l-34 -84h-543q39 -152 149.5 -246t253.5 -94q193 0 316 168v-119 q-143 -125 -318 -124q-170 0 -308 119.5t-173 295.5h-117z" />
<glyph unicode="&#x2122;" horiz-adv-x="1476" d="M2 1294v72h465v-72h-197v-706h-75v706h-193zM547 588l92 842l332 -713l336 710l92 -839h-76l-63 567l-289 -612l-287 612l-61 -567h-76z" />
</font>
</defs>
</svg>
