<?xml version="1.0" standalone="no"?>
<!DOCTYPE svg PUBLIC "-//W3C//DTD SVG 1.1//EN" "http://www.w3.org/Graphics/SVG/1.1/DTD/svg11.dtd" >
<svg xmlns="http://www.w3.org/2000/svg">
<metadata>
This is a custom SVG webfont generated by Fontspring.
</metadata>
<defs>
<font id="webfontuHPlF47t" horiz-adv-x="1161" >
<font-face units-per-em="2048" ascent="1542" descent="-506" />
<missing-glyph horiz-adv-x="512" />
<glyph unicode=" "  horiz-adv-x="512" />
<glyph unicode="&#x09;" horiz-adv-x="512" />
<glyph unicode="&#xa0;" horiz-adv-x="512" />
<glyph unicode="!" horiz-adv-x="571" d="M184 82q0 41 31 70.5t72 29.5t70.5 -29.5t29.5 -70.5q0 -43 -29.5 -72.5t-72.5 -29.5q-41 0 -71 30.5t-30 71.5zM211 281v626h149v-626h-149z" />
<glyph unicode="&#x22;" horiz-adv-x="673" d="M109 1366h165l-28 -549h-111zM401 1366h164l-26 -549h-111z" />
<glyph unicode="#" horiz-adv-x="1228" d="M100 434v123h234l35 285h-217v123h233l49 411l129 -16l-49 -395h289l51 411l127 -16l-49 -395h213v-123h-225l-37 -285h211v-123h-226l-55 -440l-127 18l51 422h-288l-56 -440l-127 18l51 422h-217zM465 557h287l34 285h-286z" />
<glyph unicode="$" d="M158 332l147 41q16 -106 82 -172t162 -74v551q-174 72 -248 152.5t-74 201.5q0 135 87 229.5t235 116.5v185h121v-187q88 -10 164.5 -66.5t121.5 -140.5l-118 -77q-70 119 -168 141v-449q117 -51 182 -96q154 -100 154 -289q0 -152 -91.5 -263t-244.5 -144v-199h-121v191 q-145 4 -254.5 101t-136.5 247zM381 1030q0 -117 168 -192v397q-78 -20 -123 -74.5t-45 -130.5zM670 137q86 35 134 100.5t48 153.5q0 78 -42 131t-140 101v-486z" />
<glyph unicode="%" horiz-adv-x="1464" d="M68 1087q0 119 90 206t213 87q127 0 216 -87t89 -212t-89 -211t-218 -86q-125 0 -213 88t-88 215zM188 1085q0 -78 53.5 -132t131.5 -54q76 0 129 54.5t53 130t-54.5 130t-129.5 54.5q-74 0 -128.5 -53.5t-54.5 -129.5zM295 20l795 1373l77 -45l-794 -1375zM788 289 q0 119 90.5 206t213.5 87q127 0 216 -87t89 -212t-89 -211t-218 -86q-125 0 -213.5 88t-88.5 215zM909 287q0 -78 54.5 -132.5t130 -54.5t129 54.5t53.5 130t-54.5 130t-129.5 54.5q-74 0 -128.5 -53t-54.5 -129z" />
<glyph unicode="&#x26;" horiz-adv-x="944" d="M82 236q0 135 127 229q57 41 110 74q-76 98 -75 180q0 90 61.5 151.5t151.5 61.5q88 0 148.5 -59.5t60.5 -147.5q0 -61 -30 -106.5t-112 -108.5l146 -188q43 43 92 110l106 -90q-61 -86 -110 -131l166 -211h-185l-84 109q-92 -76 -154.5 -105t-133.5 -29q-119 0 -202 76 t-83 185zM225 240q0 -53 42 -93.5t100 -40.5q41 0 83 24t117 89l-161 209q-106 -68 -143.5 -105.5t-37.5 -82.5zM385 725q0 -37 53 -107q55 41 70.5 60.5t15.5 48.5q0 31 -19.5 51.5t-48 20.5t-50 -22.5t-21.5 -51.5z" />
<glyph unicode="'" horiz-adv-x="382" d="M109 1366h165l-28 -549h-111z" />
<glyph unicode="(" horiz-adv-x="602" d="M170 567q0 262 46 514t124 420l131 -59q-154 -391 -154 -875q0 -485 154 -876l-131 -60q-78 168 -124 421t-46 515z" />
<glyph unicode=")" horiz-adv-x="602" d="M129 -309q154 391 154 876q0 483 -154 875l129 59q80 -166 126 -418t46 -516t-46 -516t-126 -420z" />
<glyph unicode="*" d="M242 1198l43 129l237 -88l-10 254h137l-10 -254l238 88l43 -129l-246 -70l157 -198l-110 -82l-141 213l-140 -213l-110 82l157 198z" />
<glyph unicode="+" d="M98 635v125h420v411h125v-411h420v-125h-420v-414h-125v414h-420z" />
<glyph unicode="," horiz-adv-x="464" d="M49 -272l170 473l133 -49l-205 -463z" />
<glyph unicode="-" horiz-adv-x="370" d="M0 371v131h371v-131h-371z" />
<glyph unicode="." horiz-adv-x="464" d="M131 82q0 41 29.5 70.5t70.5 29.5q43 0 73 -29.5t30 -70.5q0 -43 -30 -72.5t-71 -29.5q-43 0 -72.5 29.5t-29.5 72.5z" />
<glyph unicode="/" horiz-adv-x="993" d="M-29 -313l893 1814l119 -53l-893 -1817z" />
<glyph unicode="0" d="M92 522q0 225 142.5 382t347.5 157q207 0 347 -155.5t140 -385t-140.5 -387.5t-346.5 -158q-209 0 -349.5 157t-140.5 390zM242 520q0 -176 96 -293.5t242 -117.5q143 0 241.5 118.5t98.5 290.5q0 174 -98.5 292t-242 118t-240.5 -118t-97 -290z" />
<glyph unicode="1" horiz-adv-x="751" d="M111 897l79 141h299v-1038h-153v897h-225z" />
<glyph unicode="2" d="M102 0l525 442q98 84 139 144.5t41 124.5q0 90 -71.5 153.5t-174.5 63.5q-72 0 -133 -33t-94 -90q-33 -53 -43 -139h-152q12 127 66 208q57 88 150.5 137.5t203.5 49.5q164 0 280.5 -105.5t116.5 -253.5q0 -156 -157 -290l-324 -279h508v-133h-881z" />
<glyph unicode="3" d="M133 27h148q14 -94 47 -138q33 -47 93 -76.5t122 -29.5q113 0 190.5 81t77.5 199q0 78 -36 140.5t-99 91.5q-55 25 -156 27v133q109 2 162 32q109 59 109 201q0 104 -67 172t-169 68q-127 0 -186 -90q-27 -43 -43 -138h-150q18 129 64 201q45 76 128 118t187 42 q168 0 276.5 -104.5t108.5 -264.5q0 -205 -174 -303q92 -43 143.5 -130t51.5 -200q0 -176 -121 -292.5t-303 -116.5q-113 0 -208.5 51t-146.5 141q-41 72 -49 185z" />
<glyph unicode="4" horiz-adv-x="1120" d="M41 0l809 1114v-981h168v-133h-168v-328h-145v328h-664zM307 133h398v545z" />
<glyph unicode="5" d="M68 -106l120 86q119 -197 310 -197q143 0 241.5 102.5t98.5 250t-97.5 247.5t-240.5 100q-117 0 -264 -92l198 647h543v-133h-436l-97 -301q47 8 82 8q199 0 330 -134t131 -339q0 -211 -142.5 -350t-359.5 -139q-265 0 -417 244z" />
<glyph unicode="6" d="M109 438q0 158 112 316l465 647l115 -86l-316 -438q68 20 127 20q182 0 309.5 -132t127.5 -321q0 -195 -137.5 -332t-332 -137t-332.5 136.5t-138 326.5zM258 440.5q0 -137.5 94 -234.5t228 -97q129 0 223 97t94 230q0 141 -93 238.5t-226 97.5q-131 0 -225.5 -97 t-94.5 -234.5z" />
<glyph unicode="7" horiz-adv-x="1091" d="M129 -285l723 1190h-700v133h935l-845 -1398z" />
<glyph unicode="8" d="M174 377q0 229 203 334q-168 100 -168 301q0 162 109.5 270.5t273.5 108.5t273.5 -108.5t109.5 -270.5q0 -92 -47 -174t-125 -127q94 -47 146 -133t52 -197q0 -174 -116.5 -290t-292.5 -116q-178 0 -298 115t-120 287zM324 383q0 -113 77.5 -193.5t186 -80.5t186.5 79.5 t78 192.5q0 109 -78 185.5t-186.5 76.5t-186 -77t-77.5 -183zM352 1013.5q0 -100.5 70 -171t170 -70.5q98 0 167.5 69.5t69.5 170t-70.5 173t-168.5 72.5q-96 0 -167 -71.5t-71 -172z" />
<glyph unicode="9" d="M111 594q0 193 138 330t331 137q195 0 334 -136.5t139 -324.5q0 -160 -113 -315l-467 -645l-113 84l314 438q-68 -18 -125 -19q-182 0 -310 131.5t-128 319.5zM260 602q0 -139 94.5 -236.5t227.5 -97.5t227 96.5t94 233.5t-94 233.5t-227 96.5q-131 0 -226.5 -96.5 t-95.5 -229.5z" />
<glyph unicode=":" horiz-adv-x="464" d="M131 82q0 41 29.5 70.5t70.5 29.5q43 0 73 -29.5t30 -70.5q0 -43 -30 -72.5t-71 -29.5q-43 0 -72.5 29.5t-29.5 72.5zM131 770q0 41 29.5 70.5t70.5 29.5q43 0 73 -29.5t30 -70.5q0 -43 -30 -72.5t-71 -29.5q-43 0 -72.5 29.5t-29.5 72.5z" />
<glyph unicode=";" horiz-adv-x="464" d="M49 -272l170 473l133 -49l-205 -463zM164 770q0 41 30.5 70.5t71.5 29.5t71 -29.5t30 -70.5q0 -43 -30 -72.5t-73 -29.5q-41 0 -70.5 30.5t-29.5 71.5z" />
<glyph unicode="&#x3c;" horiz-adv-x="1024" d="M68 623v133l886 418v-154l-723 -330l723 -332v-151z" />
<glyph unicode="=" d="M98 510v119h965v-119h-965zM98 764v119h965v-119h-965z" />
<glyph unicode="&#x3e;" horiz-adv-x="1024" d="M70 207v151l723 332l-723 330v154l886 -418v-133z" />
<glyph unicode="?" horiz-adv-x="684" d="M109 723q0 86 67.5 147.5t163.5 61.5q100 0 166.5 -64.5t66.5 -160.5q0 -78 -38.5 -123t-135.5 -78q-80 -27 -104.5 -44.5t-24.5 -51.5q0 -31 19.5 -51.5t48.5 -20.5q63 0 70 76h143q-8 -88 -65.5 -138.5t-147.5 -50.5q-88 0 -148.5 55.5t-60.5 133.5q0 106 98 155 q37 18 133 52q70 25 70 90q0 43 -24.5 68.5t-65.5 25.5t-65.5 -25.5t-24.5 -66.5q0 -14 6 -39h-141q-6 35 -6 49zM240 82q0 41 30.5 70.5t71.5 29.5t70.5 -29.5t29.5 -70.5q0 -43 -29.5 -72.5t-72.5 -29.5q-41 0 -70.5 30.5t-29.5 71.5z" />
<glyph unicode="@" horiz-adv-x="1474" d="M51 684q0 299 206 503t507 204q276 0 462.5 -176.5t186.5 -436.5q0 -199 -98 -345t-232 -146q-106 0 -147 121q-63 -68 -119.5 -95.5t-132.5 -27.5q-147 0 -245.5 105.5t-98.5 264.5q0 172 109.5 287t273.5 115q147 0 242 -115l10 98h135l-55 -465q-8 -70 -8 -94 q0 -66 55 -65q72 0 130 108.5t58 243.5q0 219 -148.5 359.5t-379.5 140.5q-244 0 -411 -169t-167 -415q0 -160 76 -296t207 -212t324 -76q209 0 448 113l43 -119q-238 -119 -489 -119q-233 0 -398 97q-160 92 -252 255.5t-92 356.5zM496 651q0 -102 55 -167.5t141 -65.5 q96 0 170 87t74 204q0 94 -56.5 154.5t-144.5 60.5q-100 0 -169.5 -79t-69.5 -194z" />
<glyph unicode="A" horiz-adv-x="1269" d="M14 0l629 1432l614 -1432h-167l-162 387h-584l-164 -387h-166zM408 528h460l-227 547z" />
<glyph unicode="B" horiz-adv-x="1085" d="M178 0v1366h248q205 0 309 -86q127 -100 127 -285q0 -168 -135 -264q121 -35 189.5 -127t68.5 -219q0 -180 -137 -293q-115 -92 -330 -92h-340zM332 141h174q164 0 239 60q88 72 89 188q0 63 -32 118.5t-83 84.5q-80 43 -234 43h-153v-494zM332 764h114q133 0 193 53 q74 63 74 176q0 115 -72 181q-59 51 -190 51h-119v-461z" />
<glyph unicode="C" horiz-adv-x="1323" d="M102 678q0 293 210 502t505 209q211 0 404 -136v-188q-193 180 -414 180q-225 0 -388 -168t-163 -401q0 -229 163 -393t390 -164q221 0 412 178v-188q-195 -133 -412 -134q-289 0 -498 208t-209 495z" />
<glyph unicode="D" horiz-adv-x="1296" d="M178 0v1366h281q315 0 502 -158q236 -197 235.5 -524.5t-240.5 -525.5q-100 -84 -216.5 -121t-282.5 -37h-279zM332 141h133q242 0 391 125q186 158 186 416q0 262 -184 418q-150 125 -393 125h-133v-1084z" />
<glyph unicode="E" horiz-adv-x="987" d="M178 0v1366h707v-141h-553v-408h538v-141h-538v-535h553v-141h-707z" />
<glyph unicode="F" horiz-adv-x="886" d="M178 0v1366h621v-141h-467v-408h452v-141h-452v-676h-154z" />
<glyph unicode="G" horiz-adv-x="1552" d="M102 680q0 293 209 501t504 208q238 0 418 -140q72 -51 158 -157l-113 -103q-102 133 -212 194.5t-249 61.5q-233 0 -397 -166t-164 -401q0 -227 163 -393t386 -166q127 0 244.5 64.5t181.5 168.5q47 74 55 193h-405v141h569v-35q0 -217 -72 -346q-82 -150 -238.5 -240 t-336.5 -90q-289 0 -495 207t-206 498z" />
<glyph unicode="H" horiz-adv-x="1357" d="M178 0v1366h154v-557h696v557h154v-1366h-154v668h-696v-668h-154z" />
<glyph unicode="I" horiz-adv-x="507" d="M178 0v1366h154v-1366h-154z" />
<glyph unicode="J" horiz-adv-x="628" d="M-96 -41l84 119q86 -76 157 -76q80 0 116 62.5t36 197.5v1104h154v-1104q0 -127 -21.5 -197.5t-75.5 -121.5q-84 -84 -204.5 -84t-245.5 100z" />
<glyph unicode="K" horiz-adv-x="1165" d="M178 0v1366h154v-586l581 586h205l-641 -637l662 -729h-209l-559 627l-39 -39v-588h-154z" />
<glyph unicode="L" horiz-adv-x="733" d="M178 0v1366h154v-1225h375v-141h-529z" />
<glyph unicode="M" horiz-adv-x="1767" d="M129 0l225 1442l525 -1153l536 1155l211 -1444h-156l-127 950l-464 -1007l-459 1007l-135 -950h-156z" />
<glyph unicode="N" horiz-adv-x="1570" d="M178 0v1423l1063 -1116v1059h154v-1427l-1063 1114v-1053h-154z" />
<glyph unicode="O" horiz-adv-x="1626" d="M102 690q0 283 212 491t501 208q291 0 500 -208t209 -499q0 -293 -210 -500t-507 -207q-145 0 -285.5 63.5t-242.5 176.5q-177 199 -177 475zM256 690q0 -252 174 -416q166 -156 379 -155q233 0 397 163.5t164 399.5q0 233 -163 398t-394 165q-229 0 -393 -164t-164 -391 z" />
<glyph unicode="P" horiz-adv-x="935" d="M178 0v1366h248q233 0 344 -96q127 -106 127 -289q0 -170 -113 -279q-111 -104 -319 -104h-133v-598h-154zM332 737h123q139 0 216 64.5t77 181.5q0 115 -76 180q-74 61 -228 62h-112v-488z" />
<glyph unicode="Q" horiz-adv-x="1626" d="M102 678q0 293 209 502t502 209q295 0 503 -209t208 -506q0 -139 -45 -250t-152 -229l205 -209h-195l-114 123q-186 -133 -414 -134q-293 0 -500 206t-207 497zM256 678q0 -231 161 -395t390 -164q174 0 309 98l-330 332h199l236 -246q150 166 149 375 q0 238 -161.5 402.5t-395.5 164.5q-236 0 -396.5 -164.5t-160.5 -402.5z" />
<glyph unicode="R" horiz-adv-x="1028" d="M178 0v1366h221q219 0 328 -74q72 -47 112 -130t40 -179q0 -156 -94.5 -257t-249.5 -116l434 -610h-187l-411 598h-39v-598h-154zM332 733h96q143 0 222 64.5t79 185.5q0 135 -100 197q-72 45 -207 45h-90v-492z" />
<glyph unicode="S" horiz-adv-x="1058" d="M102 328l148 41q57 -250 278 -250q115 0 195 77.5t80 190.5q0 125 -113 195q-51 33 -241 118q-147 66 -212 145t-65 191q0 152 109.5 252.5t273.5 100.5q229 0 352 -213l-121 -78q-51 82 -103 114.5t-132 32.5q-96 0 -160.5 -60.5t-64.5 -150.5q0 -88 86 -147 q49 -33 235 -115q164 -72 236.5 -160t72.5 -217q0 -176 -125.5 -298t-308.5 -122q-162 0 -271.5 92.5t-148.5 260.5z" />
<glyph unicode="T" horiz-adv-x="870" d="M27 1225v141h815v-141h-332v-1225h-154v1225h-329z" />
<glyph unicode="U" horiz-adv-x="1329" d="M178 487v879h154v-838q0 -184 45 -262q41 -66 121 -106.5t166 -40.5q88 0 167.5 41t120.5 106q45 78 45 262v838h154v-879q0 -209 -90 -323q-68 -88 -173.5 -138.5t-222 -50.5t-224 50.5t-173.5 138.5q-90 114 -90 323z" />
<glyph unicode="V" horiz-adv-x="1134" d="M14 1366h168l387 -1040l387 1040h166l-555 -1446z" />
<glyph unicode="W" horiz-adv-x="1955" d="M14 1366h166l365 -1024l428 1094l403 -1094l402 1024h166l-572 -1436l-403 1092l-430 -1092z" />
<glyph unicode="X" horiz-adv-x="1028" d="M27 0l403 707l-369 659h175l282 -514l289 514h174l-377 -659l395 -707h-170l-313 561l-317 -561h-172z" />
<glyph unicode="Y" horiz-adv-x="1081" d="M14 1366h176l349 -610l352 610h178l-455 -778v-588h-153v588z" />
<glyph unicode="Z" horiz-adv-x="1093" d="M47 0l746 1225h-650v141h901l-743 -1225h725v-141h-979z" />
<glyph unicode="[" horiz-adv-x="595" d="M164 -360v1853h344v-137h-195v-1579h195v-137h-344z" />
<glyph unicode="\" horiz-adv-x="993" d="M10 1448l119 53l893 -1814l-119 -56z" />
<glyph unicode="]" horiz-adv-x="595" d="M88 -223h195v1579h-195v137h344v-1853h-344v137z" />
<glyph unicode="^" horiz-adv-x="1024" d="M49 745l361 625h202l361 -625h-166l-297 502l-295 -502h-166z" />
<glyph unicode="_" horiz-adv-x="1024" d="M0 -131h1024v-141h-1024v141z" />
<glyph unicode="`" horiz-adv-x="1024" d="M233 1317l152 67l215 -294l-90 -52z" />
<glyph unicode="a" horiz-adv-x="911" d="M14 0l449 987l436 -987h-160l-106 242h-352l-107 -242h-160zM332 375h252l-125 295z" />
<glyph unicode="b" horiz-adv-x="890" d="M178 0v907h221q141 0 219 -59q92 -76 92.5 -197t-114.5 -159q88 -18 140 -81t52 -147q0 -119 -100 -201q-84 -63 -231 -63h-279zM324 133h125q98 0 145 33q49 39 49 102q0 129 -207 129h-112v-264zM324 528h88q82 0 118.5 29t36.5 92q0 125 -153 125h-90v-246z" />
<glyph unicode="c" horiz-adv-x="970" d="M88 451q0 199 143.5 340t346.5 141q145 0 290 -107v-190q-84 90 -151.5 127t-147.5 37q-137 0 -235 -102.5t-98 -245.5q0 -139 99 -240.5t236 -101.5q76 0 144.5 36.5t152.5 124.5v-190q-145 -104 -297 -105q-199 0 -341 140.5t-142 335.5z" />
<glyph unicode="d" horiz-adv-x="983" d="M178 0v907h213q211 0 342 -106q162 -133 162 -346q0 -215 -166 -351q-131 -104 -338 -104h-213zM324 133h71q147 0 240 74q113 94 113 246q0 147 -95.5 234t-257.5 87h-71v-641z" />
<glyph unicode="e" horiz-adv-x="800" d="M178 0v907h522v-133h-376v-213h366v-133h-366v-295h376v-133h-522z" />
<glyph unicode="f" horiz-adv-x="733" d="M178 0v907h467v-133h-321v-213h313v-133h-313v-428h-146z" />
<glyph unicode="g" horiz-adv-x="1107" d="M88 451q0 199 142.5 340t342.5 141q184 0 310 -115q51 -47 102 -110l-108 -99q-76 106 -142.5 148.5t-159.5 42.5q-141 0 -240 -101.5t-99 -246.5q0 -139 98 -240.5t233 -101.5q125 0 224 94q41 41 65 137h-252v133h408q0 -119 -13 -176q-29 -137 -153.5 -229.5 t-278.5 -92.5q-199 0 -339 140.5t-140 335.5z" />
<glyph unicode="h" horiz-adv-x="1062" d="M178 0v907h146v-350h415v350h146v-907h-146v424h-415v-424h-146z" />
<glyph unicode="i" horiz-adv-x="501" d="M178 0v907h146v-907h-146z" />
<glyph unicode="j" horiz-adv-x="497" d="M-96 -4l84 115l6 -7q68 -68 104 -67q76 0 76 153v717h145v-717q0 -158 -69 -225q-61 -61 -150 -61q-90 0 -196 92z" />
<glyph unicode="k" horiz-adv-x="917" d="M178 0v907h146v-358l356 358h201l-418 -415l426 -492h-199l-340 401l-26 -24v-377h-146z" />
<glyph unicode="l" horiz-adv-x="614" d="M178 0v907h146v-774h264v-133h-410z" />
<glyph unicode="m" horiz-adv-x="1265" d="M129 0l160 993l340 -747l346 747l149 -993h-143l-76 530l-278 -604l-275 604l-78 -530h-145z" />
<glyph unicode="n" horiz-adv-x="1196" d="M178 0v983l699 -719l-3 643h146v-983l-698 717l2 -641h-146z" />
<glyph unicode="o" horiz-adv-x="1146" d="M88 459q0 193 144.5 333t340.5 140q199 0 342.5 -141.5t143.5 -337.5q0 -199 -143.5 -338.5t-346.5 -139.5q-201 0 -341 141.5t-140 342.5zM236 459q0 -145 98 -247.5t237 -102.5q141 0 240.5 100t99.5 243.5t-99 245t-238.5 101.5t-238.5 -100.5t-99 -239.5z" />
<glyph unicode="p" horiz-adv-x="774" d="M178 0v907h221q162 0 242 -67q92 -76 92 -199t-84 -194.5t-227 -71.5h-98v-375h-146zM324 506h94q170 0 170 135q0 133 -178 133h-86v-268z" />
<glyph unicode="q" horiz-adv-x="1146" d="M88 451q0 199 143.5 340t343.5 141q199 0 341.5 -141.5t142.5 -337.5q0 -178 -123 -316l133 -137h-176l-55 55q-123 -80 -265 -80q-201 0 -343 139.5t-142 336.5zM236 453q0 -143 99 -243.5t238 -100.5q78 0 168 45l-245 249h178l164 -165q74 98 73 215q0 145 -98 245.5 t-239.5 100.5t-239.5 -100.5t-98 -245.5z" />
<glyph unicode="r" horiz-adv-x="862" d="M178 0v907h203q152 0 229 -51q111 -72 111 -217q0 -94 -52.5 -160.5t-144.5 -87.5l277 -391h-178l-258 377h-41v-377h-146zM324 504h75q176 0 176 137q0 133 -178 133h-73v-270z" />
<glyph unicode="s" horiz-adv-x="823" d="M102 250l142 39q29 -180 172 -180q66 0 111.5 45t45.5 110q0 68 -63 105q-47 27 -158 73q-106 45 -153 100.5t-47 135.5q0 109 79.5 181.5t198.5 72.5q172 0 268 -176l-116 -78l-7 12q-33 66 -63.5 87.5t-83.5 21.5q-55 0 -92 -35t-37 -88q0 -43 45 -74q31 -18 154 -70 q119 -49 171 -110.5t52 -149.5q0 -125 -90 -211t-221 -86q-249 1 -308 275z" />
<glyph unicode="t" horiz-adv-x="645" d="M27 774v133h589v-133h-221v-774h-147v774h-221z" />
<glyph unicode="u" horiz-adv-x="1044" d="M178 332v575h146v-551q0 -117 26 -161q23 -37 73 -61.5t101 -24.5t100.5 24.5t71.5 61.5q27 45 27 161v551h145v-575q0 -141 -63 -226q-102 -131 -281 -131q-180 0 -282 131q-64 85 -64 226z" />
<glyph unicode="v" horiz-adv-x="823" d="M14 907h160l240 -614l239 614h158l-399 -1003z" />
<glyph unicode="w" horiz-adv-x="1300" d="M12 907h154l211 -598l268 684l252 -686l233 600h156l-393 -966l-252 684l-268 -684z" />
<glyph unicode="x" horiz-adv-x="780" d="M27 0l282 469l-260 438h166l178 -305l180 305h168l-266 -438l277 -469h-164l-197 336l-198 -336h-166z" />
<glyph unicode="y" horiz-adv-x="804" d="M14 907h170l217 -364l222 364h170l-318 -520v-387h-147v387z" />
<glyph unicode="z" horiz-adv-x="839" d="M47 0l500 774h-420v133h666l-500 -774h467v-133h-713z" />
<glyph unicode="{" horiz-adv-x="595" d="M104 510v121q63 16 90 59t27 123v399q0 150 60.5 216.5t197.5 66.5q27 0 53 -2v-127h-18q-88 0 -115.5 -35t-27.5 -143v-383q0 -100 -27 -150.5t-98 -89.5q70 -39 97.5 -92t27.5 -149v-371q0 -119 28.5 -151.5t132.5 -32.5v-127q-18 -2 -38 -2h-17q-137 0 -196.5 69.5 t-59.5 233.5v376q0 88 -27 131.5t-90 59.5z" />
<glyph unicode="|" horiz-adv-x="1024" d="M436 -342v1708h154v-1708h-154z" />
<glyph unicode="}" horiz-adv-x="595" d="M63 -231h19q88 0 115.5 34.5t27.5 143.5v383q0 100 27 150t98 87q-70 39 -97.5 92.5t-27.5 149.5v371q0 121 -28.5 153.5t-133.5 30.5v129q137 0 195 -25q117 -53 117 -276v-377q0 -88 26.5 -131t90.5 -61v-121q-63 -14 -90 -57.5t-27 -122.5v-402q0 -150 -60.5 -215 t-197.5 -65h-54v129z" />
<glyph unicode="~" horiz-adv-x="1366" d="M190 1251q63 131 127 183.5t154 52.5q80 0 229 -70q143 -66 199 -65q57 0 98 30.5t86 108.5l93 -53q-59 -121 -130 -176.5t-165 -55.5q-43 0 -96.5 18.5t-190.5 80.5q-80 37 -133 36q-102 0 -182 -149z" />
<glyph unicode="&#xa1;" horiz-adv-x="571" d="M184 827q0 43 30 73t73 30q41 0 70.5 -31t29.5 -72t-30.5 -70.5t-71.5 -29.5t-71 29.5t-30 70.5zM211 0v629h149v-629h-149z" />
<glyph unicode="&#xa2;" d="M201 694q0 170 108.5 296t272.5 149v192h118v-190q117 -8 218 -78v-193q-102 121 -218 138v-623q117 18 224 145v-192q-123 -82 -224 -86v-203h-118v205q-164 23 -272.5 147.5t-108.5 292.5zM350 696.5q0 -114.5 64.5 -201.5t167.5 -108v617q-100 -20 -166 -106.5 t-66 -201z" />
<glyph unicode="&#xa3;" d="M109 53q106 170 264 174q57 92 57 172q0 37 -12 84h-230v117h181l-60 117q-55 109 -72.5 164t-17.5 123q0 160 118 270t288 110q174 0 280.5 -109.5t114.5 -295.5l-150 -41q-8 98 -22 147q-23 70 -83 111t-140 41q-109 0 -180.5 -69.5t-71.5 -174.5q0 -53 22.5 -112.5 t87.5 -182.5l52 -98h258v-117h-218q12 -45 13 -80q0 -88 -60 -196l118 -39q56 -18 76.5 -26.5t40 -12.5t38.5 -4q47 0 84 30.5t80 106.5l122 -74q-106 -211 -280 -211q-76 0 -225 54q-139 51 -193 51q-92 0 -164 -109z" />
<glyph unicode="&#xa4;" horiz-adv-x="1366" d="M109 1221l84 86l196 -195q94 63 153.5 85t141.5 22t142.5 -21.5t150.5 -83.5l194 193l84 -86l-192 -193q59 -88 80.5 -150.5t21.5 -140.5q0 -80 -21.5 -139t-80.5 -149l194 -197l-81 -84l-197 194q-147 -104 -293 -104q-78 0 -141.5 22.5t-153.5 79.5l-194 -192l-84 84 l194 192q-106 150 -106 293q0 141 102 289zM340 737q0 -141 101.5 -242.5t242.5 -101.5t242.5 101.5t101.5 243t-100.5 243.5t-239.5 102q-145 0 -246.5 -100.5t-101.5 -245.5z" />
<glyph unicode="&#xa5;" d="M53 1366h176l349 -610l352 610h178l-272 -465h223v-117h-291l-102 -178h393v-117h-406v-489h-153v489h-398v117h385l-100 178h-285v117h217z" />
<glyph unicode="&#xa6;" horiz-adv-x="1024" d="M436 313h154v-655h-154v655zM436 682v684h154v-684h-154z" />
<glyph unicode="&#xa7;" d="M207 569q0 231 205 322q-92 53 -132 118.5t-40 159.5q0 143 103 241.5t255 98.5q94 0 173 -42t120 -111q49 -82 57 -234h-145q-2 106 -33 158q-53 90 -170 90q-96 0 -154.5 -58.5t-58.5 -154.5q0 -90 70 -143q31 -23 56.5 -34t123.5 -46q152 -55 209 -105 q109 -92 108 -258q0 -106 -48 -181t-156 -140q68 -41 94 -70q76 -76 76 -215q0 -154 -98.5 -248t-260.5 -94q-100 0 -180 42t-121 116q-43 72 -49 223h147q8 -115 39 -158q53 -82 168 -82q94 0 149.5 54.5t55.5 150.5q0 113 -88 170q-41 27 -182 82q-139 53 -191 103 q-102 91 -102 245zM358 575q0 -94 64.5 -159.5t157 -65.5t157 65.5t64.5 158t-64.5 158t-156.5 65.5q-90 0 -156 -66t-66 -156z" />
<glyph unicode="&#xa8;" horiz-adv-x="1024" d="M231 1149q0 41 31 71.5t72 30.5q43 0 73.5 -30.5t30.5 -71.5q0 -43 -30.5 -74t-71.5 -31q-43 0 -74 31t-31 74zM588 1149q0 41 30.5 70.5t71.5 29.5t72 -29.5t31 -72.5q0 -41 -31 -72t-72 -31q-43 0 -72.5 31t-29.5 74z" />
<glyph unicode="&#xa9;" horiz-adv-x="1515" d="M51 688q0 291 209 496t508 205q285 0 489.5 -209t204.5 -496q0 -293 -205.5 -500t-498.5 -207q-295 0 -501 207t-206 504zM166 688q0 -250 172 -423t420 -173q244 0 417 174t173 418q0 240 -173.5 415t-408.5 175q-270 0 -449 -197q-151 -168 -151 -389zM360 674 q0 172 125 297t299 125q82 0 146.5 -27t140.5 -90v-174q-66 78 -88 98q-82 78 -199 78q-123 0 -214 -93t-91 -218q0 -121 91.5 -212t213.5 -91q113 0 199 75q14 10 88 95v-172q-143 -111 -285 -111q-174 0 -300 125t-126 295z" />
<glyph unicode="&#xaa;" horiz-adv-x="733" d="M84 1104q0 115 72.5 191.5t183.5 76.5q106 0 180 -78v66h96v-512h-96v63q-72 -78 -178 -77q-113 0 -185.5 76.5t-72.5 193.5zM182 1108q0 -82 48.5 -135t121.5 -53q78 0 126 51t48 133t-48 132t-126 50q-72 0 -121 -51t-49 -127z" />
<glyph unicode="&#xab;" horiz-adv-x="882" d="M76 436l305 383l96 -74l-244 -309l244 -301l-96 -76zM381 436l305 383l94 -74l-243 -309l243 -301l-94 -76z" />
<glyph unicode="&#xac;" horiz-adv-x="1024" d="M68 403v144h886v-547h-153v403h-733z" />
<glyph unicode="&#xad;" horiz-adv-x="370" d="M0 371v131h371v-131h-371z" />
<glyph unicode="&#xae;" horiz-adv-x="1515" d="M51 688q0 291 209 496t508 205q285 0 489.5 -209t204.5 -496q0 -293 -205.5 -500t-498.5 -207q-295 0 -501 207t-206 504zM166 688q0 -250 172 -423t420 -173q244 0 417 174t173 418q0 240 -173.5 415t-408.5 175q-270 0 -449 -197q-151 -168 -151 -389zM578 266v819h139 q131 0 200.5 -59t69.5 -174q0 -92 -49 -149.5t-139 -73.5l250 -363h-144l-211 309v-309h-116zM694 735h37q137 0 137 119t-147 119h-27v-238z" />
<glyph unicode="&#xaf;" horiz-adv-x="1024" d="M240 1071v123h544v-123h-544z" />
<glyph unicode="&#xb0;" d="M307 1114q0 113 81 192.5t196 79.5q111 0 190.5 -80.5t79.5 -191.5q0 -113 -80 -193.5t-192 -80.5q-115 0 -195 79.5t-80 194.5zM416 1114q0 -70 48 -118t118 -48q68 0 115.5 48t47.5 118q0 66 -48 115t-113 49q-70 0 -119 -48t-49 -116z" />
<glyph unicode="&#xb1;" d="M98 0v125h965v-125h-965zM98 635v125h420v411h125v-411h420v-125h-420v-399h-125v399h-420z" />
<glyph unicode="&#xb2;" horiz-adv-x="559" d="M43 805l236 254q96 104 96 153q0 39 -30 66t-75 27q-33 0 -59.5 -17.5t-36.5 -46.5q-4 -10 -8 -49h-92q4 55 14 82q20 51 69.5 83t112.5 32q82 0 139.5 -51.5t57.5 -125.5q0 -47 -25.5 -91t-103.5 -128l-98 -104h227v-84h-424z" />
<glyph unicode="&#xb3;" horiz-adv-x="559" d="M74 975h90q4 -31 12 -47q25 -47 88 -47q43 0 73 27.5t30 68.5q0 47 -29 67.5t-96 20.5v80q63 2 89.5 20.5t26.5 59.5q0 35 -24.5 57.5t-63.5 22.5q-41 0 -60.5 -18.5t-27.5 -69.5h-92q8 45 21 77q43 94 159 95q78 0 129.5 -46.5t51.5 -115.5q0 -72 -62 -121 q70 -49 70 -131q0 -76 -56.5 -127t-140.5 -51q-57 0 -105 27.5t-69 74.5q-10 25 -14 76z" />
<glyph unicode="&#xb4;" horiz-adv-x="1024" d="M424 1090l215 294l152 -67l-277 -279z" />
<glyph unicode="&#xb5;" horiz-adv-x="952" d="M139 -479v1329h146v-518q0 -223 192 -223q117 0 164 88q27 51 27 157v496h145v-512q0 -172 -78 -256q-94 -106 -254 -107q-117 0 -202 64l6 -518h-146z" />
<glyph unicode="&#xb6;" d="M84 1014q0 96 40 176t109 123q90 53 246 53h588l-68 -119h-90v-1450h-129v1450h-217v-1450h-129v875h-31q-141 0 -230 95t-89 247z" />
<glyph unicode="&#xb7;" horiz-adv-x="460" d="M129 438q0 41 29.5 71t70.5 30q43 0 73 -30t30 -71q0 -43 -30 -72.5t-71 -29.5q-43 0 -72.5 29.5t-29.5 72.5z" />
<glyph unicode="&#xb8;" horiz-adv-x="1024" d="M373 -375l172 269l135 -56l-207 -262z" />
<glyph unicode="&#xb9;" horiz-adv-x="559" d="M141 1294l52 84h149v-573h-92v489h-109z" />
<glyph unicode="&#xba;" horiz-adv-x="733" d="M86 1106q0 111 83 188.5t200 77.5q119 0 199.5 -77.5t80.5 -192.5t-82 -193t-202 -78q-117 0 -198 80t-81 195zM184 1106q0 -82 51.5 -135t129.5 -53q82 0 134 52t52 132q0 82 -52.5 134t-131.5 52q-78 0 -130.5 -52t-52.5 -130z" />
<glyph unicode="&#xbb;" horiz-adv-x="882" d="M102 135l244 301l-244 309l97 74l305 -383l-305 -377zM408 135l243 301l-243 309l94 74l305 -383l-305 -377z" />
<glyph unicode="&#xbc;" horiz-adv-x="1761" d="M193 1270l57 96h196v-819h-108v723h-145zM442 20l795 1373l80 -43l-795 -1377zM1044 133l549 746v-650h103v-96h-103v-133h-108v133h-441zM1237 229h248v336z" />
<glyph unicode="&#xbd;" horiz-adv-x="1761" d="M193 1270l57 96h196v-819h-108v723h-145zM442 20l795 1373l80 -43l-795 -1377zM1079 0l320 350q82 92 113.5 143.5t31.5 96.5q0 61 -47 104t-117 43q-92 0 -135 -67q-20 -31 -28 -99h-109q10 96 45 150q78 111 227 110q113 0 192 -70.5t79 -172.5q0 -68 -36 -127.5 t-151 -186.5l-161 -178h346v-96h-570z" />
<glyph unicode="&#xbe;" horiz-adv-x="1761" d="M84 768h104q10 -57 31 -82q43 -57 127 -57q68 0 114 45t46 110q0 96 -80 129q-29 14 -100 17v92q68 0 104 18q63 33 64 113q0 55 -39 92t-100.5 37t-92.5 -28.5t-45 -100.5h-106q14 86 41 129q61 96 202 96q106 0 176 -63.5t70 -159.5q0 -104 -98 -178q111 -72 110 -197 q0 -106 -76.5 -177t-191.5 -71q-158 0 -227 117q-25 39 -33 119zM444 20l795 1373l78 -43l-795 -1377zM1044 133l549 746v-650h103v-96h-103v-133h-108v133h-441zM1237 229h248v336z" />
<glyph unicode="&#xbf;" horiz-adv-x="684" d="M109 203q0 78 38.5 123t135.5 77q80 27 104.5 44.5t24.5 52.5q0 31 -19.5 51t-48.5 20q-63 0 -70 -75h-143q10 88 66.5 138t146.5 50q88 0 148.5 -55.5t60.5 -132.5q0 -104 -98 -158q-31 -16 -133 -51q-70 -23 -70 -88q0 -45 24.5 -71t65.5 -26t65.5 26t24.5 67 q0 14 -6 41h141q6 -35 6 -50q0 -88 -67.5 -149.5t-163.5 -61.5q-100 0 -166.5 65t-66.5 163zM240 827q0 43 29.5 73t72.5 30q41 0 70.5 -31t29.5 -72t-30.5 -70.5t-71.5 -29.5t-70.5 29.5t-29.5 70.5z" />
<glyph unicode="&#xc0;" horiz-adv-x="1269" d="M14 0l629 1432l614 -1432h-167l-162 387h-584l-164 -387h-166zM358 1714l138 92l243 -266l-88 -65zM408 528h460l-227 547z" />
<glyph unicode="&#xc1;" horiz-adv-x="1269" d="M14 0l629 1432l614 -1432h-167l-162 387h-584l-164 -387h-166zM408 528h460l-227 547zM551 1540l244 266l137 -92l-293 -239z" />
<glyph unicode="&#xc2;" horiz-adv-x="1269" d="M14 0l629 1432l614 -1432h-167l-162 387h-584l-164 -387h-166zM369 1561l284 243l289 -243l-108 -84l-181 155l-178 -155zM408 528h460l-227 547z" />
<glyph unicode="&#xc3;" horiz-adv-x="1269" d="M14 0l629 1432l614 -1432h-167l-162 387h-584l-164 -387h-166zM360 1597q74 145 183 146q47 0 131 -43q80 -41 112 -41q49 0 93 88l88 -68q-70 -147 -187 -147q-53 0 -133 43q-82 41 -115 41q-25 0 -41 -17.5t-42 -70.5zM408 528h460l-227 547z" />
<glyph unicode="&#xc4;" horiz-adv-x="1269" d="M14 0l629 1432l614 -1432h-167l-162 387h-584l-164 -387h-166zM354 1636q0 41 31 72t74 31t73.5 -31t30.5 -74t-30.5 -73.5t-73.5 -30.5t-74 30.5t-31 75.5zM408 528h460l-227 547zM743 1636q0 41 31 72t74 31t73.5 -31t30.5 -74t-30.5 -73.5t-73.5 -30.5t-74 30.5 t-31 75.5z" />
<glyph unicode="&#xc5;" horiz-adv-x="1269" d="M14 0l629 1432l614 -1432h-167l-162 387h-584l-164 -387h-166zM408 528h460l-227 547zM463 1653q0 74 54 128t130 54t131.5 -54.5t55.5 -130t-54.5 -131t-130.5 -55.5q-78 0 -132 55.5t-54 133.5zM563 1651q0 -35 25.5 -60.5t60.5 -25.5t59.5 25.5t24.5 60.5 q0 33 -24.5 58.5t-59.5 25.5t-60.5 -24.5t-25.5 -59.5z" />
<glyph unicode="&#xc6;" horiz-adv-x="1839" d="M27 0l608 1366h600l59 -141h-551l170 -410h539l61 -141h-538l221 -533h555l61 -141h-714l-160 383h-582l-161 -383h-168zM422 524h457l-228 539z" />
<glyph unicode="&#xc7;" horiz-adv-x="1323" d="M102 678q0 293 210 502t505 209q209 0 404 -136v-188q-193 180 -414 180q-225 0 -388 -168t-163 -401q0 -229 163 -393t390 -164q219 0 412 178v-188q-195 -133 -412 -134q-289 0 -498 207t-209 496zM545 -375l182 279l147 -66l-227 -266z" />
<glyph unicode="&#xc8;" horiz-adv-x="987" d="M178 0v1366h707v-141h-553v-408h538v-141h-538v-535h553v-141h-707zM252 1714l137 92l244 -266l-88 -65z" />
<glyph unicode="&#xc9;" horiz-adv-x="987" d="M178 0v1366h707v-141h-553v-408h538v-141h-538v-535h553v-141h-707zM430 1540l244 266l137 -92l-293 -239z" />
<glyph unicode="&#xca;" horiz-adv-x="987" d="M178 0v1366h707v-141h-553v-408h538v-141h-538v-535h553v-141h-707zM258 1561l285 243l288 -243l-108 -84l-180 155l-178 -155z" />
<glyph unicode="&#xcb;" horiz-adv-x="987" d="M178 0v1366h707v-141h-553v-408h538v-141h-538v-535h553v-141h-707zM246 1636q0 41 30.5 72t73.5 31t74 -31t31 -74t-31 -73.5t-74 -30.5t-73.5 30.5t-30.5 75.5zM635 1636q0 41 30.5 72t73.5 31t74 -31t31 -74t-31 -73.5t-74 -30.5t-73.5 30.5t-30.5 75.5z" />
<glyph unicode="&#xcc;" horiz-adv-x="507" d="M4 1714l137 92l197 -272l-88 -59zM176 0v1366h154v-1366h-154z" />
<glyph unicode="&#xcd;" horiz-adv-x="507" d="M176 1534l197 272l137 -92l-246 -239zM178 0v1366h154v-1366h-154z" />
<glyph unicode="&#xce;" horiz-adv-x="507" d="M14 1561l252 243l252 -243l-100 -84l-152 155l-153 -155zM176 0v1366h154v-1366h-154z" />
<glyph unicode="&#xcf;" horiz-adv-x="507" d="M25 1636q0 41 30.5 72t73.5 31t73.5 -31t30.5 -74t-30.5 -73.5t-73.5 -30.5t-73.5 30.5t-30.5 75.5zM178 0v1366h154v-1366h-154zM301 1636q0 41 30.5 72t74 31t74 -31t30.5 -74t-30.5 -73.5t-74 -30.5t-74 30.5t-30.5 75.5z" />
<glyph unicode="&#xd0;" horiz-adv-x="1296" d="M43 668v137h137v561h279q313 0 499 -158q236 -195 236 -526q0 -328 -240 -524q-102 -84 -216.5 -121t-280.5 -37h-277v668h-137zM334 141h131q240 0 389 125q186 158 186 416q0 262 -184 418q-150 125 -391 125h-131v-420h325v-137h-325v-527z" />
<glyph unicode="&#xd1;" horiz-adv-x="1570" d="M178 0v1423l1063 -1116v1059h154v-1427l-1063 1114v-1053h-154zM518 1597q72 145 182 146q47 0 131 -43q80 -41 113 -41q49 0 92 88l88 -68q-70 -147 -186 -147q-53 0 -133 43q-82 41 -115 41q-25 0 -41 -17.5t-43 -70.5z" />
<glyph unicode="&#xd2;" horiz-adv-x="1626" d="M102 690q0 283 212 491t501 208q291 0 500 -208t209 -499q0 -293 -210 -500t-507 -207q-145 0 -285.5 63.5t-242.5 176.5q-177 199 -177 475zM256 690q0 -252 174 -416q166 -156 379 -155q233 0 397 163.5t164 399.5q0 233 -163 398t-394 165q-229 0 -393 -164t-164 -391 zM530 1714l138 92l243 -266l-88 -65z" />
<glyph unicode="&#xd3;" horiz-adv-x="1626" d="M102 690q0 283 212 491t501 208q291 0 500 -208t209 -499q0 -293 -210 -500t-507 -207q-145 0 -285.5 63.5t-242.5 176.5q-177 199 -177 475zM256 690q0 -252 174 -416q166 -156 379 -155q233 0 397 163.5t164 399.5q0 233 -163 398t-394 165q-229 0 -393 -164t-164 -391 zM727 1540l244 266l137 -92l-293 -239z" />
<glyph unicode="&#xd4;" horiz-adv-x="1626" d="M102 690q0 283 212 491t501 208q291 0 500 -208t209 -499q0 -293 -210 -500t-507 -207q-145 0 -285.5 63.5t-242.5 176.5q-177 199 -177 475zM256 690q0 -252 174 -416q166 -156 379 -155q233 0 397 163.5t164 399.5q0 233 -163 398t-394 165q-229 0 -393 -164t-164 -391 zM532 1561l285 243l289 -243l-109 -84l-180 155l-178 -155z" />
<glyph unicode="&#xd5;" horiz-adv-x="1626" d="M102 690q0 283 212 491t501 208q291 0 500 -208t209 -499q0 -293 -210 -500t-507 -207q-145 0 -285.5 63.5t-242.5 176.5q-177 199 -177 475zM256 690q0 -252 174 -416q166 -156 379 -155q233 0 397 163.5t164 399.5q0 233 -163 398t-394 165q-229 0 -393 -164t-164 -391 zM545 1597q74 145 182 146q47 0 131 -43q80 -41 113 -41q49 0 92 88l88 -68q-70 -147 -186 -147q-53 0 -134 43q-82 41 -114 41q-25 0 -41.5 -17.5t-42.5 -70.5z" />
<glyph unicode="&#xd6;" horiz-adv-x="1626" d="M102 690q0 283 212 491t501 208q291 0 500 -208t209 -499q0 -293 -210 -500t-507 -207q-145 0 -285.5 63.5t-242.5 176.5q-177 199 -177 475zM256 690q0 -252 174 -416q166 -156 379 -155q233 0 397 163.5t164 399.5q0 233 -163 398t-394 165q-229 0 -393 -164t-164 -391 zM528 1636q0 41 31 72t74 31t73.5 -31t30.5 -74t-30.5 -73.5t-73.5 -30.5t-74 30.5t-31 75.5zM918 1636q0 41 30.5 72t73.5 31t73.5 -31t30.5 -74t-30.5 -73.5t-73.5 -30.5t-73.5 30.5t-30.5 75.5z" />
<glyph unicode="&#xd7;" d="M178 379l318 317l-318 318l86 86l318 -318l317 318l86 -86l-317 -318l317 -317l-86 -86l-317 317l-318 -317z" />
<glyph unicode="&#xd8;" horiz-adv-x="1626" d="M100 76l160 157q-86 119 -122 220.5t-36 226.5q0 291 210 500t503 209q229 0 447 -158l157 158l88 -91l-153 -155q94 -125 132 -227.5t38 -233.5q0 -291 -209 -499t-502 -208q-240 0 -463 168l-157 -157zM256 680q0 -94 24.5 -169t88.5 -171l784 788q-150 117 -340 117 q-231 0 -394 -164.5t-163 -400.5zM459 252q66 -59 163 -96t195 -37q227 0 390 165t163 396q0 188 -123 358z" />
<glyph unicode="&#xd9;" horiz-adv-x="1329" d="M178 487v879h154v-838q0 -184 45 -262q41 -66 121 -106.5t166 -40.5q88 0 167.5 41t120.5 106q45 78 45 262v838h154v-879q0 -209 -90 -323q-68 -88 -173.5 -138.5t-222 -50.5t-224 50.5t-173.5 138.5q-90 114 -90 323zM389 1714l137 92l244 -266l-88 -65z" />
<glyph unicode="&#xda;" horiz-adv-x="1329" d="M178 487v879h154v-838q0 -184 45 -262q41 -66 121 -106.5t166 -40.5q88 0 167.5 41t120.5 106q45 78 45 262v838h154v-879q0 -209 -90 -323q-68 -88 -173.5 -138.5t-222 -50.5t-224 50.5t-173.5 138.5q-90 114 -90 323zM580 1540l243 266l138 -92l-293 -239z" />
<glyph unicode="&#xdb;" horiz-adv-x="1329" d="M178 487v879h154v-838q0 -184 45 -262q41 -66 121 -106.5t166 -40.5q88 0 167.5 41t120.5 106q45 78 45 262v838h154v-879q0 -209 -90 -323q-68 -88 -173.5 -138.5t-222 -50.5t-224 50.5t-173.5 138.5q-90 114 -90 323zM391 1561l285 243l289 -243l-109 -84l-180 155 l-178 -155z" />
<glyph unicode="&#xdc;" horiz-adv-x="1329" d="M178 487v879h154v-838q0 -184 45 -262q41 -66 121 -106.5t166 -40.5q88 0 167.5 41t120.5 106q45 78 45 262v838h154v-879q0 -209 -90 -323q-68 -88 -173.5 -138.5t-222 -50.5t-224 50.5t-173.5 138.5q-90 114 -90 323zM373 1636q0 41 30.5 72t73.5 31t74 -31t31 -74 t-31 -73.5t-74 -30.5t-73.5 30.5t-30.5 75.5zM762 1636q0 41 30.5 72t73.5 31t74 -31t31 -74t-31 -73.5t-74 -30.5t-73.5 30.5t-30.5 75.5z" />
<glyph unicode="&#xdd;" horiz-adv-x="1081" d="M14 1366h176l349 -610l352 610h178l-455 -778v-588h-153v588zM449 1540l243 266l137 -92l-292 -239z" />
<glyph unicode="&#xde;" horiz-adv-x="935" d="M178 0v1366h154v-192h94q236 0 344 -95q127 -106 127 -288q0 -172 -113 -279q-111 -104 -319 -104h-133v-408h-154zM332 547h123q139 0 216 63.5t77 180.5q0 115 -76 180q-74 61 -228 61h-112v-485z" />
<glyph unicode="&#xdf;" horiz-adv-x="1648" d="M102 250l142 39q29 -180 172 -180q66 0 111.5 45t45.5 110q0 68 -63 105q-47 27 -158 73q-106 45 -153 100.5t-47 135.5q0 109 79.5 181.5t198.5 72.5q172 0 268 -176l-116 -78l-7 12q-33 66 -63.5 87.5t-83.5 21.5q-55 0 -92 -35t-37 -88q0 -43 45 -74q31 -18 154 -70 q119 -49 171 -110.5t52 -149.5q0 -125 -90 -211t-221 -86q-249 1 -308 275zM926 250l143 39q29 -180 170 -180q68 0 114 45t46 110q0 68 -64 105q-47 27 -159 73q-106 45 -153.5 100.5t-47.5 135.5q0 109 80 181.5t198 72.5q172 0 271 -176l-119 -78l-6 12 q-33 66 -63.5 87.5t-84.5 21.5q-55 0 -92 -35t-37 -88q0 -43 45 -74q31 -18 156 -70q119 -49 171 -110.5t52 -149.5q0 -125 -90 -211t-221 -86q-248 1 -309 275z" />
<glyph unicode="&#xe0;" horiz-adv-x="911" d="M14 0l449 987l436 -987h-160l-106 242h-352l-107 -242h-160zM170 1317l152 67l215 -294l-91 -52zM332 375h252l-125 295z" />
<glyph unicode="&#xe1;" horiz-adv-x="911" d="M14 0l449 987l436 -987h-160l-106 242h-352l-107 -242h-160zM332 375h252l-125 295zM389 1090l215 294l152 -67l-277 -279z" />
<glyph unicode="&#xe2;" horiz-adv-x="911" d="M14 0l449 987l436 -987h-160l-106 242h-352l-107 -242h-160zM186 1118l283 242l285 -242l-107 -80l-178 154l-180 -154zM332 375h252l-125 295z" />
<glyph unicode="&#xe3;" horiz-adv-x="911" d="M14 0l449 987l436 -987h-160l-106 242h-352l-107 -242h-160zM168 1108q51 84 91 113.5t97 29.5q51 0 142 -41q92 -41 118 -41q51 0 99 86l86 -69q-66 -145 -193 -146q-47 0 -139 43q-90 39 -125 39q-49 0 -88 -84zM332 375h252l-125 295z" />
<glyph unicode="&#xe4;" horiz-adv-x="911" d="M14 0l449 987l436 -987h-160l-106 242h-352l-107 -242h-160zM188 1149q0 41 31 71.5t72 30.5q43 0 73.5 -30.5t30.5 -71.5q0 -43 -30.5 -74t-71.5 -31q-43 0 -74 31t-31 74zM332 375h252l-125 295zM545 1149q0 41 30.5 70.5t71.5 29.5t72 -29.5t31 -72.5q0 -41 -31 -72 t-72 -31q-43 0 -72.5 31t-29.5 74z" />
<glyph unicode="&#xe5;" horiz-adv-x="911" d="M14 0l449 987l436 -987h-160l-106 242h-352l-107 -242h-160zM295 1217q0 72 52 123t124 51t124 -51.5t52 -125.5q0 -72 -52 -124t-124 -52q-74 0 -125 52.5t-51 126.5zM332 375h252l-125 295zM385 1216.5q0 -34.5 25.5 -60.5t60.5 -26t60.5 26t25.5 60.5t-25.5 59 t-60.5 24.5t-60.5 -24.5t-25.5 -59z" />
<glyph unicode="&#xe6;" horiz-adv-x="1280" d="M27 0l403 907h438l56 -133h-361l92 -219h353l57 -133h-352l125 -289h358l55 -133h-516l-96 240h-350l-103 -240h-159zM342 373h244l-121 297z" />
<glyph unicode="&#xe7;" horiz-adv-x="970" d="M88 451q0 199 143.5 340t346.5 141q145 0 290 -107v-190q-84 90 -151.5 127t-147.5 37q-137 0 -235 -102.5t-98 -245.5q0 -139 99 -240.5t236 -101.5q76 0 144.5 36.5t152.5 124.5v-190q-145 -104 -297 -105q-199 0 -341 140.5t-142 335.5zM387 -375l172 269l135 -56 l-207 -262z" />
<glyph unicode="&#xe8;" horiz-adv-x="800" d="M150 1317l151 67l215 -294l-90 -52zM178 0v907h522v-133h-376v-213h366v-133h-366v-295h376v-133h-522z" />
<glyph unicode="&#xe9;" horiz-adv-x="800" d="M178 0v907h522v-133h-376v-213h366v-133h-366v-295h376v-133h-522zM375 1090l215 294l151 -67l-276 -279z" />
<glyph unicode="&#xea;" horiz-adv-x="800" d="M166 1118l283 242l284 -242l-106 -80l-178 154l-181 -154zM178 0v907h522v-133h-376v-213h366v-133h-366v-295h376v-133h-522z" />
<glyph unicode="&#xeb;" horiz-adv-x="800" d="M174 1149q0 41 31 71.5t71 30.5q43 0 74 -30.5t31 -71.5q0 -43 -31 -74t-71 -31q-43 0 -74 31t-31 74zM178 0v907h520v-133h-374v-213h366v-133h-366v-295h374v-133h-520zM530 1149q0 41 31 70.5t72 29.5t71.5 -29.5t30.5 -72.5q0 -41 -30.5 -72t-71.5 -31q-43 0 -73 31 t-30 74z" />
<glyph unicode="&#xec;" horiz-adv-x="501" d="M-43 1317l152 67l215 -294l-91 -52zM178 0v907h146v-907h-146z" />
<glyph unicode="&#xed;" horiz-adv-x="501" d="M176 1090l215 294l152 -67l-277 -279zM178 0v907h146v-907h-146z" />
<glyph unicode="&#xee;" horiz-adv-x="501" d="M-27 1118l283 242l285 -242l-107 -80l-178 154l-180 -154zM176 0v907h146v-907h-146z" />
<glyph unicode="&#xef;" horiz-adv-x="501" d="M10 1149q0 41 31 71.5t72 30.5q43 0 73.5 -30.5t30.5 -71.5q0 -43 -30.5 -74t-71.5 -31q-43 0 -74 31t-31 74zM178 0v907h146v-907h-146zM299 1149q0 41 30.5 70.5t71.5 29.5t72 -29.5t31 -72.5q0 -41 -31 -72t-72 -31q-43 0 -72.5 31t-29.5 74z" />
<glyph unicode="&#xf0;" horiz-adv-x="983" d="M59 389v123h119v395h213q209 0 340 -106q162 -133 162 -346q0 -221 -164 -351q-127 -104 -338 -104h-213v389h-119zM324 133h71q158 0 254 88t96 232q0 147 -95 234t-255 87h-71v-262h217v-123h-217v-256z" />
<glyph unicode="&#xf1;" horiz-adv-x="1196" d="M178 0v983l699 -719l-3 643h146v-983l-698 717l2 -641h-146zM303 1108q51 84 91 113.5t98 29.5q51 0 141 -41q92 -41 119 -41q51 0 98 86l86 -69q-66 -145 -193 -146q-47 0 -139 43q-90 39 -125 39q-49 0 -88 -84z" />
<glyph unicode="&#xf2;" horiz-adv-x="1146" d="M88 459q0 193 144.5 333t340.5 140q199 0 342.5 -141.5t143.5 -337.5q0 -199 -143.5 -338.5t-346.5 -139.5q-201 0 -341 141.5t-140 342.5zM236 459q0 -145 98 -247.5t237 -102.5q141 0 240.5 100t99.5 243.5t-99 245t-238.5 101.5t-238.5 -100.5t-99 -239.5zM281 1317 l151 67l215 -294l-90 -52z" />
<glyph unicode="&#xf3;" horiz-adv-x="1146" d="M88 459q0 193 144.5 333t340.5 140q199 0 342.5 -141.5t143.5 -337.5q0 -199 -143.5 -338.5t-346.5 -139.5q-201 0 -341 141.5t-140 342.5zM236 459q0 -145 98 -247.5t237 -102.5q141 0 240.5 100t99.5 243.5t-99 245t-238.5 101.5t-238.5 -100.5t-99 -239.5zM500 1090 l215 294l151 -67l-276 -279z" />
<glyph unicode="&#xf4;" horiz-adv-x="1146" d="M88 459q0 193 144.5 333t340.5 140q199 0 342.5 -141.5t143.5 -337.5q0 -199 -143.5 -338.5t-346.5 -139.5q-201 0 -341 141.5t-140 342.5zM236 459q0 -145 98 -247.5t237 -102.5q141 0 240.5 100t99.5 243.5t-99 245t-238.5 101.5t-238.5 -100.5t-99 -239.5zM297 1118 l283 242l284 -242l-106 -80l-178 154l-181 -154z" />
<glyph unicode="&#xf5;" horiz-adv-x="1146" d="M88 459q0 193 144.5 333t340.5 140q199 0 342.5 -141.5t143.5 -337.5q0 -199 -143.5 -338.5t-346.5 -139.5q-201 0 -341 141.5t-140 342.5zM236 459q0 -145 98 -247.5t237 -102.5q141 0 240.5 100t99.5 243.5t-99 245t-238.5 101.5t-238.5 -100.5t-99 -239.5zM279 1108 q51 84 91 113.5t97 29.5q51 0 141 -41q92 -41 119 -41q51 0 98 86l86 -69q-66 -145 -192 -146q-47 0 -139 43q-90 39 -125 39q-49 0 -88 -84z" />
<glyph unicode="&#xf6;" horiz-adv-x="1146" d="M88 459q0 193 144.5 333t340.5 140q199 0 342.5 -141.5t143.5 -337.5q0 -199 -143.5 -338.5t-346.5 -139.5q-201 0 -341 141.5t-140 342.5zM236 459q0 -145 98 -247.5t237 -102.5q141 0 240.5 100t99.5 243.5t-99 245t-238.5 101.5t-238.5 -100.5t-99 -239.5zM299 1149 q0 41 30.5 71.5t71.5 30.5q43 0 74 -30.5t31 -71.5q0 -43 -31 -74t-72 -31q-43 0 -73.5 31t-30.5 74zM655 1149q0 41 31 70.5t72 29.5t71.5 -29.5t30.5 -72.5q0 -41 -30.5 -72t-71.5 -31q-43 0 -73 31t-30 74z" />
<glyph unicode="&#xf7;" d="M98 635v125h965v-125h-965zM485 430q0 39 29 66.5t68 27.5q41 0 68.5 -28.5t27.5 -67.5t-27.5 -67.5t-68.5 -28.5t-69 28.5t-28 69.5zM485 967q0 39 29 66.5t68 27.5q41 0 68.5 -28.5t27.5 -67.5t-27.5 -68t-68.5 -29t-69 29t-28 70z" />
<glyph unicode="&#xf8;" horiz-adv-x="1146" d="M57 33l131 129q-100 131 -100 291q0 197 143.5 338t341.5 141q158 0 291 -96l135 133l91 -90l-134 -134q102 -133 103 -292q0 -197 -142.5 -337.5t-343.5 -140.5q-156 0 -290 97l-131 -133zM236 453q0 -96 55 -189l475 473q-88 61 -193 62q-141 0 -239 -100.5t-98 -245.5 zM383 170q94 -61 190 -61q139 0 238.5 101t99.5 243q0 98 -55 190z" />
<glyph unicode="&#xf9;" horiz-adv-x="1044" d="M178 332v575h146v-551q0 -117 26 -161q23 -37 73 -61.5t101 -24.5t100.5 24.5t71.5 61.5q27 45 27 161v551h145v-575q0 -141 -63 -226q-102 -131 -281 -131q-180 0 -282 131q-64 85 -64 226zM229 1317l152 67l215 -294l-90 -52z" />
<glyph unicode="&#xfa;" horiz-adv-x="1044" d="M178 332v575h146v-551q0 -117 26 -161q23 -37 73 -61.5t101 -24.5t100.5 24.5t71.5 61.5q27 45 27 161v551h145v-575q0 -141 -63 -226q-102 -131 -281 -131q-180 0 -282 131q-64 85 -64 226zM449 1090l215 294l151 -67l-276 -279z" />
<glyph unicode="&#xfb;" horiz-adv-x="1044" d="M178 332v575h146v-551q0 -117 26 -161q23 -37 73 -61.5t101 -24.5t100.5 24.5t71.5 61.5q27 45 27 161v551h145v-575q0 -141 -63 -226q-102 -131 -281 -131q-180 0 -282 131q-64 85 -64 226zM254 1118l283 242l284 -242l-106 -80l-178 154l-181 -154z" />
<glyph unicode="&#xfc;" horiz-adv-x="1044" d="M178 332v575h146v-551q0 -117 26 -161q23 -37 73 -61.5t101 -24.5t100.5 24.5t71.5 61.5q27 45 27 161v551h145v-575q0 -141 -63 -226q-102 -131 -281 -131q-180 0 -282 131q-64 85 -64 226zM256 1149q0 41 30.5 71.5t71.5 30.5q43 0 74 -30.5t31 -71.5q0 -43 -31 -74 t-72 -31q-43 0 -73.5 31t-30.5 74zM612 1149q0 41 31 70.5t72 29.5t71.5 -29.5t30.5 -72.5q0 -41 -30.5 -72t-71.5 -31q-43 0 -73 31t-30 74z" />
<glyph unicode="&#xfd;" horiz-adv-x="804" d="M14 907h170l217 -364l222 364h170l-318 -520v-387h-147v387zM336 1090l215 294l151 -67l-276 -279z" />
<glyph unicode="&#xfe;" horiz-adv-x="774" d="M178 0v907h146v-184h75q162 0 242 -68q92 -76 92 -198.5t-84 -194.5t-227 -72h-98v-190h-146zM324 322h94q170 0 170 135q0 133 -178 133h-86v-268z" />
<glyph unicode="&#xff;" horiz-adv-x="804" d="M14 907h170l217 -364l222 364h170l-318 -520v-387h-147v387zM135 1149q0 41 31 71.5t72 30.5q43 0 73.5 -30.5t30.5 -71.5q0 -43 -30.5 -74t-71.5 -31q-43 0 -74 31t-31 74zM492 1149q0 41 30.5 70.5t71.5 29.5t71.5 -29.5t30.5 -72.5q0 -41 -30.5 -72t-71.5 -31 q-43 0 -72.5 31t-29.5 74z" />
<glyph unicode="&#x152;" horiz-adv-x="2162" d="M102 680q0 293 208 501t501 208q336 0 551 -291v268h698v-141h-544v-408h530v-141h-530v-535h544v-141h-698v262q-207 -287 -545 -287q-293 0 -504 208t-211 497zM256 690q0 -236 161 -403.5t386 -167.5q231 0 395 165t164 396t-163 398t-390 167q-223 0 -388 -166 t-165 -389z" />
<glyph unicode="&#x153;" horiz-adv-x="1499" d="M88 451q0 199 140.5 340t334.5 141q190 0 330 -148v123h502v-133h-355v-213h346v-133h-346v-295h355v-133h-502v119q-143 -143 -326 -144q-195 0 -337 141.5t-142 334.5zM236 459q0 -145 95 -247.5t230 -102.5q137 0 234.5 100t97.5 243.5t-96.5 245t-231.5 101.5 q-133 0 -231 -101.5t-98 -238.5z" />
<glyph unicode="&#x178;" horiz-adv-x="1081" d="M14 1366h176l349 -610l352 610h178l-455 -778v-588h-153v588zM262 1636q0 41 31 72t74 31t73.5 -31t30.5 -74t-30.5 -73.5t-73.5 -30.5t-74 30.5t-31 75.5zM651 1636q0 41 31 72t74 31t73.5 -31t30.5 -74t-30.5 -73.5t-73.5 -30.5t-74 30.5t-31 75.5z" />
<glyph unicode="&#x2c6;" horiz-adv-x="1024" d="M229 1118l283 242l285 -242l-107 -80l-178 154l-180 -154z" />
<glyph unicode="&#x2dc;" horiz-adv-x="1024" d="M197 1108q51 84 91 113.5t97 29.5q51 0 141 -41q92 -41 119 -41q51 0 98 86l86 -69q-66 -145 -192 -146q-47 0 -139 43q-90 39 -125 39q-49 0 -88 -84z" />
<glyph unicode="&#x2000;" horiz-adv-x="917" />
<glyph unicode="&#x2001;" horiz-adv-x="1835" />
<glyph unicode="&#x2002;" horiz-adv-x="917" />
<glyph unicode="&#x2003;" horiz-adv-x="1835" />
<glyph unicode="&#x2004;" horiz-adv-x="611" />
<glyph unicode="&#x2005;" horiz-adv-x="458" />
<glyph unicode="&#x2006;" horiz-adv-x="305" />
<glyph unicode="&#x2007;" horiz-adv-x="305" />
<glyph unicode="&#x2008;" horiz-adv-x="229" />
<glyph unicode="&#x2009;" horiz-adv-x="367" />
<glyph unicode="&#x200a;" horiz-adv-x="101" />
<glyph unicode="&#x2010;" horiz-adv-x="370" d="M0 371v131h371v-131h-371z" />
<glyph unicode="&#x2011;" horiz-adv-x="370" d="M0 371v131h371v-131h-371z" />
<glyph unicode="&#x2013;" d="M240 371v131h682v-131h-682z" />
<glyph unicode="&#x2014;" horiz-adv-x="1114" d="M0 371v131h1114v-131h-1114z" />
<glyph unicode="&#x2018;" horiz-adv-x="534" d="M117 973l205 461l98 -39l-170 -471z" />
<glyph unicode="&#x2019;" horiz-adv-x="516" d="M94 963l170 471l133 -50l-204 -460z" />
<glyph unicode="&#x201a;" horiz-adv-x="516" d="M94 -266l170 471l133 -49l-204 -461z" />
<glyph unicode="&#x201c;" horiz-adv-x="835" d="M117 973l205 461l98 -39l-170 -471zM416 973l207 461l98 -39l-170 -471z" />
<glyph unicode="&#x201d;" horiz-adv-x="835" d="M117 963l170 471l133 -50l-205 -460zM416 963l170 471l135 -50l-207 -460z" />
<glyph unicode="&#x201e;" horiz-adv-x="835" d="M117 -272l170 473l133 -49l-205 -463zM416 -272l170 473l135 -49l-207 -463z" />
<glyph unicode="&#x2022;" horiz-adv-x="1366" d="M401 692q0 119 84 202t205 83q113 0 196 -84t83 -199q0 -119 -83 -201.5t-200 -82.5t-201 83.5t-84 198.5z" />
<glyph unicode="&#x2026;" horiz-adv-x="1527" d="M154 82q0 39 29.5 68.5t70.5 29.5t70.5 -29.5t29.5 -70.5t-29.5 -70.5t-70.5 -29.5t-70.5 29.5t-29.5 72.5zM664 82q0 39 29.5 68.5t70.5 29.5t70.5 -29.5t29.5 -70.5t-29.5 -70.5t-70.5 -29.5t-70.5 29.5t-29.5 72.5zM1171 82q0 39 30 68.5t71 29.5t70.5 -29.5 t29.5 -70.5t-29.5 -70.5t-70.5 -29.5t-71 29.5t-30 72.5z" />
<glyph unicode="&#x202f;" horiz-adv-x="367" />
<glyph unicode="&#x2039;" horiz-adv-x="577" d="M76 436l305 383l96 -74l-244 -309l244 -301l-96 -76z" />
<glyph unicode="&#x203a;" horiz-adv-x="577" d="M102 135l244 301l-244 309l97 74l305 -383l-307 -377z" />
<glyph unicode="&#x205f;" horiz-adv-x="458" />
<glyph unicode="&#x20ac;" horiz-adv-x="1132" d="M92 362l49 119h74q-2 23 -2 37v25h-121l49 119h88q39 176 171 287.5t302 111.5q195 0 338 -143l-65 -154q-98 164 -275 164q-111 0 -194.5 -71t-122.5 -195h547l-51 -117l-517 -2v-62h492l-49 -119h-420q41 -119 125 -186t190 -67q182 0 279 174v-213q-135 -94 -279 -95 q-166 0 -293.5 105.5t-175.5 281.5h-139z" />
<glyph unicode="&#x2122;" horiz-adv-x="1476" d="M8 1274v92h471v-92h-188v-686h-98v686h-185zM553 588l133 829l293 -647l301 647l125 -829h-96l-70 528l-260 -567l-256 567l-76 -528h-94z" />
</font>
</defs>
</svg>
